/* XPM */
static char *MzMwcHgtR2FiYnJvX3BtZ19zc18yMDA2[] = {
/* columns rows colors chars-per-pixel */
"96 64 256 2 ",
"   c #030301",
".  c #090A06",
"X  c #160807",
"o  c #09140B",
"O  c #12130D",
"+  c #18170B",
"@  c #150C16",
"#  c #0A1618",
"$  c #151513",
"%  c #1B1B15",
"&  c #13151A",
"*  c #131A1C",
"=  c #1C1D1A",
"-  c #181615",
";  c #080B15",
":  c #261A17",
">  c #2C0E11",
",  c #1A221A",
"<  c #0B2311",
"1  c #23231D",
"2  c #28271B",
"3  c #342917",
"4  c #181C24",
"5  c #101228",
"6  c #270A27",
"7  c #371729",
"8  c #2F1330",
"9  c #192425",
"0  c #152D2E",
"q  c #242522",
"w  c #2B2B25",
"e  c #2C2D2B",
"r  c #262826",
"t  c #352B28",
"y  c #2D332C",
"u  c #33322C",
"i  c #3A3529",
"p  c #2B2C33",
"a  c #2C3435",
"s  c #333433",
"d  c #3B3B35",
"f  c #3B3C3B",
"g  c #373736",
"h  c #382B38",
"j  c #443C36",
"k  c #4B322F",
"l  c #572221",
"z  c #3C423A",
"x  c #2C432C",
"c  c #3C491E",
"v  c #72491B",
"b  c #42423D",
"n  c #4A4539",
"m  c #52493C",
"M  c #4E4B2C",
"N  c #745029",
"B  c #161C4D",
"V  c #2F1743",
"C  c #14345B",
"Z  c #112E55",
"A  c #292949",
"S  c #3D3C43",
"D  c #282954",
"F  c #2F3253",
"G  c #183767",
"H  c #113367",
"J  c #2D3268",
"K  c #190C68",
"L  c #4B354A",
"P  c #552C51",
"I  c #3C4543",
"U  c #2E4F51",
"Y  c #396958",
"T  c #376B53",
"R  c #2E4B6D",
"E  c #396C63",
"W  c #3D7466",
"Q  c #2C6C72",
"!  c #145B68",
"~  c #444543",
"^  c #464944",
"/  c #4B4A45",
"(  c #4C4C4B",
")  c #474747",
"_  c #534C46",
"`  c #4D514C",
"'  c #52524D",
"]  c #5A5549",
"[  c #4D4E51",
"{  c #464659",
"}  c #554D54",
"|  c #4C5453",
" . c #545453",
".. c #5A5A55",
"X. c #5C5C5B",
"o. c #565757",
"O. c #635C57",
"+. c #6A584E",
"@. c #456A59",
"#. c #5D615B",
"$. c #46735C",
"%. c #586D53",
"&. c #63625D",
"*. c #6A655B",
"=. c #746A56",
"-. c #5A5D63",
";. c #4E546F",
":. c #68596D",
">. c #5C6464",
",. c #487766",
"<. c #567867",
"1. c #4B7071",
"2. c #636463",
"3. c #6A6A65",
"4. c #6B6C6B",
"5. c #656766",
"6. c #736D68",
"7. c #6B736B",
"8. c #73726D",
"9. c #797569",
"0. c #696C72",
"q. c #6C7372",
"w. c #737473",
"e. c #7B7A75",
"r. c #7B7D7B",
"t. c #767775",
"y. c #776D7C",
"u. c #936938",
"i. c #9D5039",
"p. c #92334E",
"a. c #8F7054",
"s. c #837C78",
"d. c #88776C",
"f. c #A46063",
"g. c #AF4A44",
"h. c #568676",
"j. c #528470",
"k. c #798678",
"l. c #709173",
"z. c #729666",
"x. c #008468",
"c. c #87847B",
"v. c #978979",
"b. c #919173",
"n. c #A7947C",
"m. c #A58971",
"M. c #8EA877",
"N. c #918C57",
"B. c #295A8C",
"V. c #146F8D",
"C. c #2F6F8B",
"Z. c #256B9F",
"A. c #547590",
"S. c #707688",
"D. c #537BAA",
"F. c #302780",
"G. c #8A7587",
"H. c #308793",
"J. c #2E92AD",
"K. c #1B9BA7",
"L. c #528A93",
"P. c #7C8484",
"I. c #70908A",
"U. c #4A8CAF",
"Y. c #6E9B9F",
"T. c #27A5CD",
"R. c #59A3CE",
"E. c #838483",
"W. c #8C8A84",
"Q. c #8B8C8C",
"!. c #868787",
"~. c #93928C",
"^. c #9A9589",
"/. c #8D8E91",
"(. c #8D9393",
"). c #939494",
"_. c #9C9A94",
"`. c #96999A",
"'. c #9B9C9B",
"]. c #979796",
"[. c #909088",
"{. c #A59A89",
"}. c #A59B96",
"|. c #B49490",
" X c #9CA39B",
".X c #91AE8B",
"XX c #A8A38B",
"oX c #A2A29D",
"OX c #ABA39A",
"+X c #A9A496",
"@X c #B4AB9C",
"#X c #B7AA98",
"$X c #B9B39B",
"%X c #ACB190",
"&X c #9D9EA0",
"*X c #949EA7",
"=X c #8692A8",
"-X c #AC9CA6",
";X c #9DA3A3",
":X c #95ADAE",
">X c #A3A4A4",
",X c #AAAAA5",
"<X c #ACACAB",
"1X c #A7A7A8",
"2X c #B3ADA4",
"3X c #B6ACA9",
"4X c #ABB2AA",
"5X c #BBB3A4",
"6X c #B3B2AD",
"7X c #B9B5A9",
"8X c #ABADB2",
"9X c #B5ADB4",
"0X c #ACB4B4",
"qX c #B3B4B3",
"wX c #BBBAB5",
"eX c #BBBCBB",
"rX c #B7B7B7",
"tX c #C5B89D",
"yX c #C3BBAB",
"uX c #C7B9A9",
"iX c #C5BBB6",
"pX c #C8AFAC",
"aX c #CA9082",
"sX c #BDC2BA",
"dX c #B6C3A8",
"fX c #A8C298",
"gX c #CAC2AC",
"hX c #C4C3BB",
"jX c #CAC5BC",
"kX c #CAC5B8",
"lX c #D5C9B8",
"zX c #D7CBB2",
"xX c #EDD0BB",
"cX c #B5B5C6",
"vX c #96AFC8",
"bX c #C6BAC4",
"nX c #B6C5C8",
"mX c #CDCAC2",
"MX c #C7C7C5",
"NX c #D2CCC3",
"BX c #D4CBC8",
"VX c #D5D3CA",
"CX c #DBD4CB",
"ZX c #D8D4C7",
"AX c #D8D9D3",
"SX c #CED1CF",
"DX c #E5DAC9",
"FX c #E3DDD2",
"GX c #EBD2D2",
"HX c #D8E4D7",
"JX c #E8E5D9",
"KX c #F5EAD7",
"LX c #F6ECD6",
"PX c #FAF5E7",
"IX c #EFEFE8",
"UX c #D9DBE6",
/* pixels */
"&X&XQ.Q./.Q./.`.&X-X).`.'.].oX1X;XqXe y 3.X.# -.*X>.MX) . t 9 1.,.1.W j.W W W j.Q E j.W W T @.t.k.k U Q Y.A.C.C.L.U.V.-.X < k S.U.F 8 < + +   - X G.mX!.s.1X}.7 > 8 P 7 - 4 0 6 @ w r , A J H Z ",
"Q.`./.!.).&X`.).&X].1X1X).'.8X}.4X0X..s ].].f ;X-. X>X$ , . @.,.W W W E E W W Q Q E Q T ,.$.z  .v %.y.C.C.A.I.1.`.! I.A.F 7 o l C.T.R.Z # * 5 ; @ rXMX9.r.1X-XL X 6 8 L j h 4 : * O O 4 Z Z B Z ",
"q.).1X&X/.).).*XQ.;X>X].1XoXP.1XsX4XrX6X,X>XqX(.X.,XQ.| 9 U W Q E E T E W T W T E Y E j.1.@.9 # Q C.:.q.1.I.Z.T.L.J.J.T.R.F.p T l x x & ; : 3 + . |  Xq.!.rX1XL 6 V 8 7 = # 7 , , , 9 A U H B D ",
"f -.&X&X).&X&X1X].G.`.,X<X'.E.1X4X,XwXwX6XqXmX#.^.t.' 4X  @.W ! E E W W $.j.T T Y E ,.W ,.<.U I C.V.K.U.Y.J.J.R.T.T.U.L.L.Q R.T.| X . < $ X O . % . ~.E.E.<X9XP 6 h 8 7 & # a # X , Z C C B Z Z ",
"p f t.`.`.&X&X>X<X[.'.<XwX<X[.<XMXqXqX,XhXMXw.X 3.z = 6X~ 9 1.Y T W T $.$.$.$.$.,.Y h.W W ,.<.$.h Q K.J.J.J.I.P.q.H.J.A.Y.L.C.K.U.;.p 5 @ @ ; ; . k.].G.9XG.k 8 > > 7 h p 4 Q H 6 F G H H C C C ",
"S s y.&X).`.&X>X,XqX,X_.eXwX).4XwX,X6XMXrXqX^.j 2 , $ r.rXS @.T T T $.@.T $.<.j.,.E h.E W W @.T ! K.U.D.H.D.Y.J.=XL.j Z R.T.H.,XU.C.0 > : ; & +.v.}.s.S.h L > 7 l 6 N L 5 9 L.B.1.Q R G H H C C ",
"f p E.8X&X&X1XrXqX,XwX6X X<XwX_.4XMX'.'.].s.^.O.2 1 % g >XP.,.W T @.@.T @.<.j.l.j.W j.Y T ,.j.<.U.K.U.J.R.Y.D.K.T.R   + U R Y.U.J.H.Q A.A.Q S.IXhX[.q.y.5 V 6 7 6 l s.G.S -.U.B.J.B.H H H C H G ",
"[ g Q.rX1X1X;X`.,XqX6X<X,XoX,X<X_.].W.w._.,Xc.3 u % q $ | q.,.T @.T T T @.$.j.<.W W 1.1.Y j.%.@.L.H.Q Q j.A.A.J.k.2 + <   > O.h.J.B.{ Z.K.K.H.L [.;X0.R 5 6 8 6 7 P P.-XG.:X:XZ.T.K.V.! C C D H ",
"k _ JXmXQ.*X1X1X,X,X<XqXrX XE.r.S.c.'.<XhX2X] > + 1 2 0 l.h.@.U %.@.@.@.<.<.$.$.<.$.$.W ,.W W h.k.3.b % . X : : 1 9 . o % X 1 P.U . > 1.K.K.C.:.yX;X-.F 5 k 7 7 6 k d.bX>X`.7XcX-X>XY.H G A B H ",
"t e.DXmX].1X>X,X4X6X<X XQ.t.e.S.0XqXqXQ._ 1 + t w 1 o I q.y @.T T @.@.T T @.$.$.$.W Y ,.1.<.h.l.] #.&.b : .   O   . # = $ . A D.! Z U V.B.V.H.=XNX9X:.F 6 P 7 7 8 8 +.-X}.>XsX8X8X9XY.Z H F D Z ",
"'.mX7XoX&X8X<XrXqX4X~.c.W.'.3XsX`.!.2.) u % % + % + z , x ,.@.T T T @.T T $.$.$.W j.<.<.7.<.#.../ ` ....j %   . % . O -   # ! K.H.D.J.K.B.B.! I.'.1XbXS.} 8 7 8 V 8 h d.s.>XcX8XcX0X=XH G A A G ",
"rXiX^._.9X8X).~.[.~.~.,XsXwXW.X.f -.o.( s e d q + 2 ' ~ z I T ,.@.T @.$.>.@.@.| @.q.I.0...' ~ b / b b ` ` f y 9 $ = O X i (.R.V.Q V.B.! V.B.V.B.4 4 } r j 7 8 V V 8 V +.J S.cXcX:X8XI.H C V V H ",
"9X>X_.W.'./.E.~.~.sXSX,Xw.~ y s o.>.[ (  .X.-.~ z / #.n #.7.j.h.<.%.<.7.7.#.&.2.c.c.9.o.^ ~ ~ ^ n b b b ~ ^ ` ` X.I u d ] 2.1.Q V.! V.B.Q Q 1.1.p # # * : L 6 6 V 7 V P K S.0X9X8XcXI.H B B D Z ",
"<X}.oXc.Q.`.1X6XMX X#.e r y g z 0.o.~ [ X.X.2.-.` #.u y ^ | >.@.#.7.9.4.3.q.s.E.}.E.O._ _ _ ^ ~ n / ^ b z L z ^ I [ I y k 3 f I.Z.Z.V.H.P l c 3 # # 5 9 * t : 8 8 > V J F.*XsX9XcXcXS.C C A F G ",
"r.c. XoX<X1XQ.3.o.z 9 9 f [ I S -.) ) } 2.-.[ |  .4.c.z q [ I L m *.9.e.e.!.Q.Q.~.4./ _ ..../ ( _ / b j f j d u g 9 # z _ i w o.j.1.Q L.} 7 e 6 , # # # 4 6 7 7 6 > 6.G.S.cXdXrX8X>X;.H H V B G ",
"1X,X XOX).4.d , e I | 0.>.o.{ -.-.{ o.} o.-.o.>.:.s r t.5.q g h *.9.~.6XwX1X].).1Xk.' / ] n d ~ b j d d i s j b : q # # , d L p , * @ r < o 0 5 o 5 # 0 8 7 7 7 6 P uXiX^.cX<XcXrX9X>.H G F C G ",
"!.P.4.~ r [ P.P.(.`.P.P.-.{ | { [ 2.5.-.[ -.} ) y % q q 3.W.O.5XLXgXDXLXLXPXFX2X6X<X4.~ o.b b ^ b w d / u d ^ , : w < 9 # 9 p 9 # < 5 0 * * * * & * * 4 6 h > > X d.iX7XsX0XrXcX,XcXA.B F h F V ",
">.| 5.S.Q.;X;XQ.4.4.w.!.5.| -.-.0.p g -.q.5.g g e.4X% 1 - ] UXPXLXLXLXLXxXLXPXLXjXhX4.( d ) t y ^ n / b z / u   3 1 , * 9 4 # ; # # * * * # # * $ 4 * * S 7 > l l v.3XwX6XeX8XqXOX9X=XB D B J J ",
";X'.>X;X`.(.(.P.q.&XeXS.[ | -.| X.r ) g ) -.y.0XCXjX7Xd : $ % X.7XJXDXDXLXDXLXxXVXPXhXj ) ^ z ( ^ u ^ ^ / d . O t % , ; 4 4 9 9 # # # 4 * & # # $ o # < 9.+.> 7 _ W.6XqX;X>X>X1X7X1X:XJ H K J J ",
"(.*X;X`.`.;X1X`.>X1X>X-.o.-. .[ w.0.4.g I -.t.eX@XyXZX+X1 . . . . ] $XDXxXDXLXzXb. XjX>X( _ ] / / 8.b ^ ' 1 = O X t , # * & 4 # # # * * * # # # & ; < 9 :.} @ V _ y.qXsX0X>X6X<XOX,X0XS.H D D L ",
"!.(.`.).`.;X;X`.).<X).)  .X.o.w.-.5.f S 2.5.y.8X5X{.2XFXmX9.% O 1   : +.uXDXDXDXAX9.*.e.' o...` ..*...' &.u   o 3.r.* 4 & ; & ; # * & & & # & # 5 ; < , j } 8 V 5.w.1XqXqX>XoXW.].>X0X:X;.J S _ ",
"(.(.`.;X;X`.>X0X&X8XQ.) 2.r.4.&.-.>.r I 2.-.2.Q.kX+X2XkXPXIXCX#.1   , o   ] uXDXFX7X*.  e / .. ...z ` ` ] y $ W.JXjXo & & # 4 , * & & & & & @ # 5 ; ; & k S.;.{ -.q.Q.0X1X8X6X<X1X8X4X8X*XS.} b ",
";X(.Q.*XqX8X;X(.].]./.).5. .#.8.X.L p | w.t.0.-.W.iXsX7XkXKXLXLX7X#.+ O 1 . . n $XLXCXe.  O ^ ` ^ 7.b ..^ , W.IXFXAXr * 4 @ & ; * & & & & & & @ # # & @ h s.].&X].1XqXMX<X1X>X8XrX8X;X1XiX1X{ P ",
"`.;X`././.(.(.(.&X1XqXrX2.) 3. .X., L 5.5.2.q.4.' _.7X/ ] v.zXKXPXPX,X~ & ; * o . n sXPX X, $ r ' ^ c._.8.s ^ VXBXIX5.4 - & = # 4 & & & @ = - @ O $ $ + :.|.7XXX>X>X<X<XrX8XrXqX1XrX8X-XOXbXF J ",
"(./.).)././.&X1X>XS.1X9X#.5.#.2.z w #.&.X. .t.o.f o.o.d b ^ ` ~.JXPXPXLX$Xz . # - o . *.JXwXo O z ..[._.}.,X] 2XHXHXf O @ 4 5 @ + l m + @ 4 9 @ O % . k pXs.6XE.)._.,XqX`.'.nXeX,X,X}.1XnXS.V V ",
"`.'.&X&X`././.`.).&X>XrXr.2.) #., ( 8.4.4.>.5.) j r d b d f b ' ] ^.PXFXLXPX~.9   , 2   1 9. X).7X6X_.}.'.6X~.c.JXe.% ( e   ; & * + f.g.> > X * 1 h O.@XOX^.mX0.~.>X,XqX>Xc.!.~.4XSXCXAXnX:.V F ",
"&X&X&X>X&X]././.rX0X1X<X4.o. .~ i 3.3.o.#.2.-.s w s ~ f d ^ z b ' ' #.kXPXPXJX#.I O O q %   z | `  .E.'._.W.e.G.c.e.e._. .q # # @ 0 M g.g.aXl o $ jXFXiX^.1X,XQ.W.<X}.'.rX<XQ.G.MXIXFXJXIXG.P G ",
"&X&X&X>X&X'.`.`.`.>X<X>X2.5.>.s } 2.3.2.#.5.z 9 z / / d d b b ^ z ^ n u c.wX3.| -.s O . 1 1 r : g ).MXX. .!.).1X_.c.9.9.n u q f P +.z.N.g.g.v X *.CXlXlX}.wX8XcXe.qXqX>X<X1X>XrXJXVXHXkXIXG.V H ",
"`.&X&X&X-X;X1X8X!.>X1Xt.#.>.~ [ 6.8.4.4.4.` # %.6X&.b / b d / b [ ~ b X.../ _ _ 4.) L z p y s 4.W.t.0.| -.~  .q.~.*.=.9.O.m n u _ k =.d.a.6.w > pXDXuXNX3XoX1X;X>X>X<X<X XQ.].hXUXAXFXkXIXG.8 ! ",
"`.`.&X`.&X&X<X8X6XQ.q.` ` o.S 5.y.r.X.X.7.f o `.JX>X .z ^ z b ^ I ^ ~ b w $ : s d j g g ~ f f VXHX4. .| ..o.O.5.` *.*.n j j i z M c m a.!.&X^.sXlXlX] j ~.<X1X>XMX>XoX>XoX>XoX>XCXAXmXAXUX:.L G ",
"&X&X&X&X`.&X1X8X<X5. .X.2.>.o.5.2.0.o.5.#.r g 4XsXAXe.e b b u b ` s ( z % = q $ 2 f z 5.).) $ [.IXt.7.o./ X.` ( 5.8.m n m n i m k n n 6.y.pXGXdXDX5X{.|.2X}.'.'.1X<XrX>X'.<X,X,XAXAXiXUXUX{ P F ",
"&X1X8X&X&X>X1X8X6X'.2. .2.) ) 0.>.5.5.q.r o k.AXsXUX_./ ~ ^ b f d ' u $ 1 u w q w ' P.>XrXq.b y SX[.~ #.7. .4.2.t...n M k j +.n ( +.=.9.a.DXzXxXlX5XJXCX,X,XOX_.8X<X1X'.,X6X_.,XJXBXBXSXnXD V J ",
").&X8X)./.&X/.>X-XnXk.o.S.| 4.O.[ 7.q.e / W.6XqXsXVX-X&.} L } _ b y + r e w q u 1 3. .d ~ X.g , 3.8.b ^ m #._ +.=.m m 3 n n n ] =.pXxX#XzXlXlXzXlXgXFX3XE.' w.qXoX,X'.8X1X8X3X6XCXBXxXHXvXD C G ",
"/.!.!.(.>X`.`.&XiX;X4X}.-Xq.| } | I 2.X.mXsXsX4XjX2X}.3...5.} I 1 1 1 w 1 w e f 1 ] 3.*.&.X.( % 1 X.' ] ...._ &.] n n k M n m m d.lXkXuXDXzXlXxXuXgXFX^.W.q  .W.<X).<XqX1X>X<XwXMXsXlXHXvXA F J ",
"1X9X1X>XrX9XeX<X8X`.3X-XMXI.A ) s r .. XSXMXsXmX5X+X^.2X].<.%.@.z + , , r e 1 % t s.[.O./ / 8.` y ` / ' 8.W.s...m c b ] m n n ..#XDX@XuXDXgXgXzXpXKXOX_.3.f s 3.VX~.rX<X8X6X,X,XsXHXAXnXA.J S D ",
"E.*X'.).(.;X<X6X;X8X-X8XvX1.U ;.q.t.wXhXqX6XVXkX|.v.c.kXhXc.@.@.m + y 1 1 q 1 q 3.iX6X<X_.b s b w s *.].oXW.s.( m n _ ] m m M 9.zXgXtXzXuXiXuXiXzXNXs.4.(  .f ~ ( X.1XeXrXqXqXrX(.0X!.S.J P p A ",
"r.!.).'.k.P.4.).;X}.&X:XQ 0 E :.>.`.0XqX7XNXhX^.^.v.5X#X2X2X#.k.*.1 q , 1 r , 1 9.mX}.~.wX<Xe.j $ $ ` `.MX[.w.2.n ] ] n j m m {.xX$XuXZXuXlXuXuXCX+X3.} b o.( ) r w.'.,X<X,X/.E.!.| X { J ;.S P ",
"E.E.].).5.X.* e (.1X1XL.C Z 1.;.o.SXrXeXwXjXv.c.^.2XlX3X}.3X}.jX3.w % % r w % $ *.7X,XOX_.}.&X/.( ..~ o.eXeX).q.] m m n n m ] gXgX#XlXzXuXlXuXiXCXc.3.[ )  .} o.-.s.^ z &.].'.].-.& X >.J P } D ",
"k.!.).W.t.#.r $ 7.-X/.C Z Z Z U >.0XsX,XjX_.^.@X7X3X}.5X7X2XiX`.2 1 1 1 = 1 1 u + v.7X2X7XiX}.6.4.).c.5.`.eX1X0. ./ b m m n v.zX#X$XlXuXgXuX$XzX,X&.3.j q.) 5.o.f ) ^ / 2.w.' S @   + >.J P ;.B ",
"Q.e.P.k./.~ z f (.qX-XI.{ B D ! 0XqXqX6XwX{.}.{.7X3X7X7X4X4X4XU o 1 % q , r = % X [.iX_.~.' t _ 3.X.4.E.S. XnX'.n &._ n M +.lXgX|.lXlXuXzX#X#XDX6.w.o.-.!./.).G.7.L ` b 5.O.e o & $ X U A.J R H ",
"E.e.Q.E.!.g f 0.cXOX2XrX=XB C *XkX7XkXNX}.{.^.iX$X#XpXyX6X4X8X@ , , , 2 % w j t &.3.z =   ] }.=.#.q.*.=.P.S.2XBX7.( _ n k n.lX,X#XxX#XzXtXXXlX@X5.G._ 3X).<X>X>XqXw.^ ^ O...X.I * o   [ o.F R J ",
"E.r.P.!.4.r f o.8X>X4X4XS.F S.nX,XwXNX3X2X}.iX2X$X X4X4X7XlX%X` . O 2 = w w ~ j = . $   q 3X{.{.3.4.k.9.S.5.9.SX(...i M +.uXgX+XuXuX$XgXtXtXkXv./.2.~.E._.oX~.1X4XX.( ] *...X.( s y s ] z | :.1.",
"Q.E.e.Q.X.4 f S ) t._.).{ ;.cXnX0XeX1X+X^.XXyX7XgX X XsXgXm.a.n.*.i + O w O $   $   $ % ~.2X#X{. XO.] 6.r.u c >XeX&.n j ^.gX7X+XzXXXuXlX|.gX5Xd.].o.bXe.3X>XW.oX!.z / O.3.X.#.>.5.o.O.3.z ] ^ z ",
"E.e.r.Q.( s S a f w y c.4.o.oXgX0X1Xc.}.XX7XjXVXpXjX:XXXaXi.i.a.b.{.c.c.5.$ $ * O , . 6.yX{.#X{.@XW.6.e.' t 3 3.SXc.d.=.uX5X#X5XgX{.#XgX{.NX[.[.5.c.wX/.<X1X].,X0./ &...O. .( 2.4._ j 6.m ] z y ",
"t.4.E.P.g S I } ) f u c.6.d 9.gX_.^.{.v.7XmXqXk.pX[.` M g.v i.u.v.uXiXkX}.1 e p 2 , d {.@X+Xn.#X{.OX`.nX^ u w b.VXyX@XuXuXuX^.zXuX5X$X{.@XkXc.].` sX<X>X).1XoXwX( X.8.] 3.O.) 4.8._ w O.' ..-.L ",
"8.8.!.2.r f I X.) -.~ 2.c.*.6.W.XX{.{.[.5XhX6.2 x y 0 o =.a.M +.xXuX#X#XhXd y y f w *.{.XX{.n.b.n.{.D.UX0X$ 9.gX7X5XyXuXuX%X+XlX$XkXuXd.wX@XW.r.9.VX6X].Q.9X}._.g >.e...6.4.o.2.e.6.( O.} } -.S ",
"w.t.4.^ e S f [ g  .( 2.E.....W.^._.[.#X@X#X=.M l.k.a # w 3 + {.zX{.{.OXiX*.% u 1 d 3 {.m.n.v.b.d.+XA.U.UXe |.gX+X{.yX+X5Xn.gXuX{.yXyX{.7XW.].>.7XMX6Xr.t.].~.*.` 5.7...3.3.o.z 2.4.O.o.X.[  .~ ",
"7.t.[ s ~ | ) f ~ [ S S e.3.o.8.k.[.}.OXpXd.N.N.M +Xb X O 1 : 9XuX#X@XOX@X2X2 u y t i v.{.m.m.n.m.|.R.B.=X( +.xX#X#X$X@X%X^.gX$X{.OX+XZX}.8.`.-.VXiX1X5.f X.c.] [ ( ( / ..6.w.I 2.-.-.( X.' n n ",
"q.P.g f g ) ) L p I p e 5.r.( e.3.b.sXkXgXn.d.tXtXn.b.< * : u 2X5X7X5X+X3XiX_ t w w 1 s.{.n.n.v.n.n.#XW.nX!.$ &.[.ZX{.2Xc.@XiX#XtXtX#XVXe. X6.pXCXHXc.S.s } ] _ ' ..2.( '  .2.'  .w.2.` X.' f ) ",
"w.[ g f e r ( [ ) p s z z 3.X.9.6.wXFXZXZXZXKXPXn.M d.j O # + }.wXXXc.+X}.7X8.- 2 1 = *.{.n.n.{.n.n.OX1XrXsXe 1 _ =.5X{.s.BXuXtXgX#XkXpX=.d.=.v.JXlX!.].{ 2.} .. .o.5.'  . .2. .b ..o.'  .' ~ ) ",
"O.^  .o.~ a h r a S L s $ c.~.*.5XCXCXZXFXCXJXDXuXf.l k O o q a.7XXXv.2X}.yXs.$ 2 2 = m |.m.n.{.|.{.#X{.oXHX>.r j i OXc.^.uXn.tXtXuXDXc.a.N.a.v ZX{.jXoX~ 4.X./  .X.&.( ) ( #. .~ ' &.5.5.3.3.X.",
"] *... .( ( p I f s r * + ~.VXFXGXCXiXBXJXjXlXZXPXpXP d.e o t 3 _._.+X}.}.yX6.2 w y 2 j |.n.n.n.|.{.#Xv.kXVX/.S ( b ] *.iX{.XXzX#XpXiXa.N.u.u.u.zXd.PX9.g ^ ` #. .o.X.( ~ / [ )  .( L u r e f ~ ",
"..6.O.' _ o.z  .r q O . % 5XIXlXBXNXCXBXBXFXAXJXCXd [ Q.q   w %._.^.,Xb._.5Xc.u 2 w r d XXn.n.{.tX#XXXXXFXVXMX{ z #.3 d.lX|.gXgX$XgX#XN u.v v u.n.yXFXg / ~ ~ o.'  .O.X. .( ( j ` 2.&.o.X.( d f ",
"j ) O./ 2.s.c.w w   y 3...W.jXNXCXmXDXNXlXFXBXAXdXz *X/.X.) 7.(.@X^.{.[.{.+X7Xw : w r d XXXX{.#X#X#X%XkXjXVXIXP.z m m gXpXuXgX$X5XZXm.v u.u.u.l ^.lXs.u o.[  .^ ' ' ( o.) ( ( ( / o.( ) o.o.' &.",
"'  .3.3.,XNXJX_.  _ jXIXkX6XmXjXFXlXNXVXCXFXDXFXKXbXpXpXSXrXrXoX7X_.}.}.+X^.OXb y 1 9 z ^.^.^. Xb.n.$XIXAXSXAX0Xu y v.DXuXlXtXuXkXuXu.v i.v u.|.@X6.u } [ f [ 3.o.( ~ ~ f _ '  .>.O.&.2.4.3.&.X.",
"(  .~ c.wX@X7XlX_.mXAXhXCXmXjXSXkXZXNXCXlXkXDXZXKXf.l -XBXcXsXMXwX7XkX@X+X}.+XXXj w 9 g c.c.r.(.%Xb.b.MXSXqX4XAXz M DXuXuXlXuXtXlXpX+.v v 3 a.d.] i } ) } X.f '  .( ~ o.( o.( / 2.' X.5.o.&.2.} ",
"{ )  .<XsXmXhXjXNXlXjXmXjXjXjXjXmXVXNXmXFXZXNXJXCXp.p.9XcXMXMXsXMXMXSXeX1X{.{.-Xc.z y y k.9.z.M..XM.b.M.n.+.%..XM.M.lXkXkXlXtXgXBX}.m 3 j O.` | ( ( j f ' ' / ) _ ( ( ..)  .} -.^  .X.o.} [ o.-.",
"[  .[ ].MXhXVXhXmXVXVXmXmXjXmXmXVXCXVXlXZXZXZXHXBXp.p.bXcXrXeXMXhXMXrXMX3X~.}._.4X.Xh.j.l.I.l.fXY.j.z.M.%X%XM.z.%XtXCX+XiXzXlXyX,X+.3 k j _ | [ ..o.` ( o.o.o.o.&./ ` ^ .. . .~ z o.#.X.} [ ( ) ",
"[ [ `  XHXVXhXmXjXVXNXjXjXNXVXjXjXZXNXNXVXZXVXZXGXp.l pXrXbX9XhXrXhXnXMXiX,X2X5XM.M.j.,.h.l.l..Xj.j.j.z.M.fXz.z.fXgXtX$XDX#XNXZXW./ i n ] ^ ) [ (  .( ( ..o.(  ...] X.' o. .o.~ b ] o.} -.o.) ) ",
"I X.~ z e.SXNXhXhXjXmXjXMXlXNXmXjXNXBXCXVXZXVXVXPXf.P -XqXMXrXqXqXsXBXhXMX6Xc.3X$Xz.T T L.j.I.l.$.j.l.z.M.M.j.M.M.=.M +.^.yX3XE.X.3.' d O.b g | ( ) (  ... .' _ ` o. .o.~ o.( ~ ^ ' ) [ 5.o.f ' ",
"~ o.q   1 MXmXhXjXkXjXmXmXjXmXVXNXiXNXCXNXjXZXDXIXpXG.9XdX0XeXsXhXeXeX8XcXe.w e.dXl.T T W T z.T @.z.l..XfXl.z..X=.. + : 3 v.8.o.a  .` u ' I f o.' ) /  .o...o. .o.o.` .. .3.o.~ ` '  . .&.' b e.",
"o.s $ $ w jXhXMXmXjXjXNXNXjXjXVXCXNXjXNXVXCXCXGXAXeXpX9X0X:XeX0XqXhX<XMXqXe . 3.7Xk.I j.$.I.l.%.z.z.M.M.z.l..Xj.z.M . : *.] ~ f s e d ^ ( ) [ (  .~ / ( ( [ o.o.o. .X. .&.-.3...( (  .( `  .3.wX",
"^ p O o . ].SXwXjXmXjXVXNXmXmXNXAXAXBXmXFXFXGXBXiX>X6X-X4X0XiX4X,XwX9XSX).$ = 2.qX.X$.j.z..Xj.T l.l..Xl.z.l.z.c =.fXi / O.u I a f p f | ) ~ ) )  ._ o.5.X. .X.X.) ( o. . .( ....( ) o.( / ..8.4X",
"s $   %   ..eXsXkXmXVXmXkXmXmXjXjXVXeX2XjXbXOXG.iX:XiX-X XwXbXeXwX1XqX8Xw.s , d :XfXz.h.fX.XT j.l.z.fX.XM.I.l.j.M.N.i 8.g d f z g ) S ~ S f s / ~ ) 2.w.O. . . .2.X. .X.) ] ` ' .. .5.o.( ' z n "
};
