/* XPM */
static char *aGpyaWZp[] = {
/* columns rows colors chars-per-pixel */
"69 64 256 2 ",
"   c #17161A",
".  c #0B0E12",
"X  c #1B1C21",
"o  c #241C24",
"O  c #132F29",
"+  c #282529",
"@  c #372C33",
"#  c #313238",
"$  c #23121A",
"%  c #463739",
"&  c #04472D",
"*  c #074B35",
"=  c #144A3A",
"-  c #095639",
";  c #14543C",
":  c #11422D",
">  c #04653A",
",  c #086D3D",
"<  c #27443A",
"1  c #50413D",
"2  c #513D43",
"3  c #175947",
"4  c #115643",
"5  c #275C54",
"6  c #2D524E",
"7  c #0A6746",
"8  c #146448",
"9  c #057647",
"0  c #1A6A55",
"q  c #0A7A55",
"w  c #177659",
"e  c #14794A",
"r  c #256659",
"t  c #22765D",
"y  c #33675C",
"u  c #1D7B63",
"i  c #2B6961",
"p  c #356964",
"a  c #297766",
"s  c #35746B",
"d  c #367B74",
"f  c #524648",
"g  c #6E5455",
"h  c #7B5D64",
"j  c #786C6B",
"k  c #576F6A",
"l  c #896768",
"z  c #98787A",
"x  c #8E7070",
"c  c #A67678",
"v  c #915E5A",
"b  c #0B845B",
"n  c #078759",
"m  c #13855B",
"M  c #08945B",
"N  c #08884E",
"B  c #0B8B64",
"V  c #138A65",
"C  c #148D69",
"Z  c #1A8D6C",
"A  c #188764",
"S  c #0B9767",
"D  c #15966B",
"F  c #199A73",
"G  c #0D9F72",
"H  c #26886C",
"J  c #2A8A74",
"K  c #388779",
"L  c #269678",
"P  c #35947C",
"I  c #28966E",
"U  c #08A569",
"Y  c #0AA773",
"T  c #17A778",
"R  c #0BB577",
"E  c #17B679",
"W  c #12AC6D",
"Q  c #25A77B",
"!  c #27B67E",
"~  c #48897A",
"^  c #688B7B",
"/  c #12C37A",
"(  c #AA837C",
")  c #92817A",
"_  c #597E8B",
"`  c #AB7B83",
"'  c #927080",
"]  c #C77D8A",
"[  c #2B9C83",
"{  c #389884",
"}  c #3D8781",
"|  c #19B787",
" . c #1AAC84",
".. c #29A885",
"X. c #37A689",
"o. c #26B789",
"O. c #34B58B",
"+. c #3BAB93",
"@. c #2ABB92",
"#. c #38B998",
"$. c #2FAE90",
"%. c #469788",
"&. c #55908E",
"*. c #689699",
"=. c #699293",
"-. c #48A896",
";. c #4BAB96",
":. c #6BA79D",
">. c #699BA3",
",. c #769BA3",
"<. c #52B6A3",
"1. c #6EA3AA",
"2. c #7BA5AB",
"3. c #76A6AA",
"4. c #7DACB3",
"5. c #76A8B1",
"6. c #7DB3B6",
"7. c #79B3AA",
"8. c #1AC688",
"9. c #19CE8F",
"0. c #25C788",
"q. c #27C896",
"w. c #35C798",
"e. c #2AD498",
"r. c #36D89B",
"t. c #2BCD8C",
"y. c #2FE299",
"u. c #38CAA1",
"i. c #39D8A6",
"p. c #2DD9A4",
"a. c #39E5A8",
"s. c #38E8B2",
"d. c #1CDFA5",
"f. c #43CE9B",
"g. c #47C5A6",
"h. c #45D9A9",
"j. c #48D9B3",
"k. c #58D5B5",
"l. c #55D1AB",
"z. c #6AD1B0",
"x. c #46E6AA",
"c. c #47E9B8",
"v. c #57E9B8",
"b. c #49F3B8",
"n. c #58F4BB",
"m. c #52E9A7",
"M. c #65EBB9",
"N. c #66F5BC",
"B. c #6AEAB6",
"V. c #44E09F",
"C. c #59F6C5",
"Z. c #54ECC1",
"A. c #68ECC5",
"S. c #68F8C6",
"D. c #7BFCCC",
"F. c #76F8C8",
"G. c #79FBD4",
"H. c #70F3CE",
"J. c #918E91",
"K. c #A88586",
"L. c #B88988",
"P. c #B29492",
"I. c #B399A3",
"U. c #84A9AC",
"Y. c #83ADB4",
"T. c #89ADB6",
"R. c #85B1B6",
"E. c #8BB3B5",
"W. c #85B3BA",
"Q. c #8BB5BB",
"!. c #8CB9BE",
"~. c #86B9B9",
"^. c #92BABD",
"/. c #97B5BB",
"(. c #93ADAA",
"). c #B0B2B1",
"_. c #9DA69A",
"`. c #C99797",
"'. c #D69999",
"]. c #CB8F8F",
"[. c #D9A49A",
"{. c #C8A49B",
"}. c #E5A799",
"|. c #D29DA4",
" X c #D9A8A6",
".X c #DAB7B8",
"XX c #D2ACAD",
"oX c #E5AAAA",
"OX c #E7B4AB",
"+X c #F2B7AC",
"@X c #E9ADB2",
"#X c #EAB4B3",
"$X c #ECBCBA",
"%X c #E7B8B6",
"&X c #F5BAB9",
"*X c #F5AAAF",
"=X c #EF969C",
"-X c #8DC6B5",
";X c #ABD9BD",
":X c #E9C3BA",
">X c #F4C3BD",
",X c #FAC6BB",
"<X c #D2C8B9",
"1X c #8DBAC2",
"2X c #8BB9C3",
"3X c #92BDC4",
"4X c #96BDC7",
"5X c #F9BCC4",
"6X c #E5BAC3",
"7X c #8DC3C3",
"8X c #94C1C6",
"9X c #9AC3C5",
"0X c #95C3CA",
"qX c #9BC5CB",
"wX c #9CC9CD",
"eX c #96C9CA",
"rX c #9ECBD2",
"tX c #9BC7D3",
"yX c #9AD4CF",
"uX c #A3C8CC",
"iX c #A3CDD2",
"pX c #A9C9D2",
"aX c #A6D2D6",
"sX c #AFD3D0",
"dX c #84FACB",
"fX c #8CFDD4",
"gX c #87FDD7",
"hX c #93FEDA",
"jX c #9CFEDB",
"kX c #97FCD4",
"lX c #90F2C9",
"zX c #A3FDDC",
"xX c #A9FCDA",
"cX c #B4FBDC",
"vX c #A9E9CF",
"bX c #99FFE3",
"nX c #85FFE1",
"mX c #ACFEE3",
"MX c #A8FFE6",
"NX c #B3FFE2",
"BX c #BBFDE4",
"VX c #BAFEEA",
"CX c #BEFFF0",
"ZX c #ACDBE3",
"AX c #ECC5C4",
"SX c #F4C4C3",
"DX c #FBC4C4",
"FX c #FDCCCB",
"GX c #F8CAC6",
"HX c #FCD2CC",
"JX c #FCD4D4",
"KX c #F6CAD0",
"LX c #C7FCE9",
"PX c #D2FBED",
"IX c #CCFEF2",
"UX c #F3EDF0",
/* pixels */
"zXB.M N V.cXxXV., : V n.S.i.G w.b.r.0 4 5 r 5 0 a a a a s p 5 i d d } k.bXLXCXzXw.H K K a [ u.q.L a a ..p.q.F A Z a.G.s.S w S x.S.9.n q n ",
"cXdX/ N m.xXvXy., : 3 o.s.Z.c.c.i.V 6 5 6 5 5 5 i d } [ [ J i s } &.<.A.G.nXMXMXz.K K H P [ w.i...H a Q q.p.L w b 8.F.S.E w W s.n.| n b n ",
"cXvXm./ m.cXkX! ; : & 3 I q.@.o.D 8 5 8 0 i 5 p J { J [ $.#.{ y p 6 p -.#.k.mXIXA.X.{ K ~ K w.j.o.I H L q.i.Q A m W b.gXi.T | c.b.Y m m q ",
"lXcXlXN.lXcXN.W ; ; ; = 3 7 q Q f.Q 0 5 i 5 p s [ { K p p y O . . . . $ # 6 =.MXH.%.{ %.{ { #.i.g.L J L q.p.E Z H V 8.n.H.s.s.s.e.S m M M ",
"V.lXxXkXkXN.9.e = ; 4 3 6 4 O.D.hXv.V y 5 i s a ..%.6 O X X   . X X   X X .   < 6 O 5 %.{ [ +.i.h.$.J F w.i.T Z Z A D t.s.a.d.9.R M M M M ",
"N y.m.m.a.! U , ; ; 4 6 3 Q F.xXBXH.Q y i s s d O.p X # # X o   . X + # O + X $ o o X 6 } { { g.s.w.....u.u.Q H Z S Z D R 9.h.j.m.e.R M M ",
": > M t.m.N.N.r.m ; 3 3 H n.kXjXNXfX#.a s p s _ 6   # @   X       X + X o . . X + + o + p %.{ -.g.i.u.w.q.0.T I L G S D t.n.fXjXmXgXa.W M ",
"& : ! N.dXgXzXhXm.M , 6 F s.h.N.zXbXc.d i d d 6 + . X + + .     . X X X o   . . o X   o 6 { -.{ #.u.u.u.e.q.0.T I D D T S.cXzXfXMXPXzXr.W ",
": e N.zXx.t.dXxXkXi.7 3 t Z H t.hXxXA.P s ~ f # $ . + o   . . + X o + # @ # + # X X X + { -.%.+.P O.V.B.N.dXN.t.R T D t.jXBXF.9.n.BXVXF.E ",
"O Q gXzXt., f.kXNXn.I 3 3 r r Q fXcXD.O.d K 6 #   . o + $ + % % @ % g j j v g g 1 1 + + s -.-.%.O.k.fXcXcXcXcXD.f.E W V.MXBXm./ t.fXIXkXe.",
"& ! kXzXr.> A N.NXfXO.0 5 r 5 J A.NXkXg.K d # X . + 1 g l x ( ( z x ` P.( L.].( ( v % + < -.;.-.h.gXBXBXzXcXPXLXN.! / V.NXPXN.W / N.IXCXb.",
"& ! jXxXx.q , a.MXxXh.w 8 r y t m.zXcXv.~ %.# X % ) ( ].[.[.'.'.`.].'. X'.}.}.}.[.L.l 1 + d 1.-.z.mXLXkXn.dXBXLXkXV./ V.MXPXN./ U c.MXLXS.",
"O W kXcXb.M ; ! hXBXn.V 5 r i a ;.fXcXF.+.~ # # c [.OX+XOXoX}.'. X@X#X@XOX+X&X&X+X}.'.h # 6 <.<.B.BXPXkXV.m.xXPXcXN./ r.MXIXfXt.U y.hXLXgX",
"& m F.BXF.E 8 I D.NXF.L r r i i O.fXBXkXB.%.+ f ( }.}.,X&X$X#X@X@X&X#X@X%X5XSXGX,X,X+Xx f f -.<.B.NXPXzXV.r.dXPXPXdXt.t.gXIXxXa.W 8.gXLXfX",
": - n.mXkXr.7 m C.NXF.I r r r K u.hXBXzXbX&.@ g `.:X:X,XSX$XoXoX XoXoXoXOXOX%X#X+X,X,X`.h % { <.M.VXLXMXm.t.B.VXPXkXr./ N.VXLXS./ / gXCXfX",
": * t.fXBXB.M e v.NXF.T 5 r a O.G.zXNXkXgXK # x [.>XGXGX5X%X@XoX X[. XoX@XoX@X,X,X+X>X+XK.2 %.<.k.NXPXBXB.t.B.MXIXzXx.R h.bXPXkXy.9.hXBXgX",
"O 4 B F.xXfXr.T F.cXM.A 5 r p $.j.A.j.g.w.p % c OX>XSXGXAXSX&X$X6X@X@X&XKX6XJX5X$X.X#X,XOXg &.g.l.jXPXLXdXr.x.kXLXcXx.W 0.N.VXVXD.D.zXcXb.",
": * 4 O.gXMXdXF.gXD.w.w 5 t i s J ..<.k.A.P % '.%X@X#XXXXX6XKX6X5XKXKXKXKX.XI.' P.z `.}.%Xh ~ l.f.dXLXPXxXm.x.xXPXxXh.E W e.gXVXNXjXhXA.t.",
"* * 4 9 e.F.gXD.n.w.t 5 r r a i d h.A.Z.G.-.# }.@X XK.J.j g j ' L.6X6XI.h f g h ' P.P.{.OXh ~ k.-.A.MXPXBXN.n.xXBXzXe.E T Y w.v.D.n.b.e.U ",
"3 * * 4 7 D O.! F u 8 0 0 i i i +.S.Z.+.l.;.@ ].}. XI.z z l 2 h c ( ` L.z ` x ' ` `. X`.XXv k v.;.g.D.LXLXcXjXxXBXD.8.U Q Y W / / e.C.x./ ",
"7 = = 4 = - e B D F ..Z i i i p g.G.v.} &.&.@ L. X].P.K.x h ` ' ` ` ].( ].c v + j J.].|.j f ;.l.-.#.m.gXNXLXBXMXdXh.| F F Y Y U t.S.MXfXe.",
"* * = * 3 5 Z T F L q.o.J 0 i a k.fXv.} K K < z P.|.c z % # I.' J.|.+XoXL.K.z g I..X.XKX6Xl _.).;.-.-.h.A.dXA.A.r. .Q T F U Y 0.S.zXPXMXx.",
"= * * 4 4 q E T 0 w  .9.o.a 0 d k.gXA.X.^ J.g f L.%X] `.` ' P.).UX*X=X&Xl |.`.@X5XUXUXKXSX XDX&X7.-.X.O.w.w.e.i.e.| T G F F Y s.G.fXVXCXA.",
"* = ; = = n 8.F 8 3 u @.@.J p u g.gXF.O.) =XOX`.OXGXSX%X@X@X|.XX.X+X}.FX|.|.5X@X6XAXAXKX5X@XHXDX7...+.X.Q $.e.A.Z.| F F T G G p.c.s.gXLXfX",
"* : = * * u | S 3 4 3 F @.F 0 i X.A.G.#.) }.,X}.{.GX&X$X#X*X%X`.`.5X*X5XFX X X$X%X&X5XKXAX X&X5X*.[ } [ [ @.u.Z.s.o.C A C B B C F R b.mXgX",
"9 : = * * 0 | Y 0 3 5 L q...a i J v.G.i.( =X}.].$X XGXGX&X@X`.{.*X5X&X5XDX&X@X X@X.XAXJX:X X&X5X&.[ } [ [ @.q.p.s.o.B u u B q B b n t.kXdX",
"D - = 4 3 a 8.9.Z 8 0 A q.@.J i J j.bXH._.=Xv ].#X:X.X%X|.|. XL.SX5XFXDX#XJXKX5XKXJXJXFX$X X[.*X<.+.{ [ $.#.| q.c.u.F C Z B C C V M 0.fXmX",
"E - ; 4 4 0 | 9.F 8 0 a q.u.L t a @.gXG.-X}.v L. XGXGX>XAXDXoX|.oX&X5XFX5X5X5X5XJXJXJXJX X+X&X:XH.<.[ $.[ [ [ @.Z.s. .Z L C C C M V R S.NX",
"r.9 ; - = 8 Y q.T 0 3 u o.q.F u a J g.G.G.<X=X X`.,XJXHXSX@X5XAX|.L.] |. XFX5XDXGXFXHXGX|.KXJXvXnXk.[ { [ [ Z [ i.s.| S C V C u V V U b.NX",
"n.m * - ; - V q.q.V 3 0 | q.F i s p L j.Z.z.>X&X( oXGXGX5XDXXX{.` x ` ' x P.{.XXDXFXGX>XP.(.4XH.bXH.+.[ [ [ [ F i.Z.q.C V B C B V n S a.zX",
"D.W - - 4 ; 7 Q q. .q V @.@.A a u a a H ..o.7._.^  XDXSX5X%XK.|.`.oX@X|.'.'.@XP.`.HXGX*X_.P [ k.bXnX#.} [ F Z F #.c.p.G A B B B n M R n.jX",
"fXt.; - ; - - V | 8. . .| F w i a 0 a d a X.n.G.B.`.&XSXHXP.`.] ] ] ] =X] '.`.@XXXFX>XOXU.X.{ <.gXnXi.[ [ [ Z L | s.i.T V B B q B G a.F.gX",
"xXn.U m 7 4 4 8 q [ G G B u r t t a t a [ C.mXVXF._.oX:X>X%X$XAX5X*X=X*X5X5X5X5X,XAX.XoXz.X.{ #.G.nXk.L J F J Z | i.Z.9.| S B q q S 9.y.e.",
"NXfXC.e.b 7 7 3 7 3 u  .o.@.F u r m a Z k.gXMXLXdX-X[. XOX5XFXFX5X6X'.|.@X5XKXKXGX@X+X'.-Xw.K +.H.bXj.F L F F F | s.Z.d.9. .B B b b M n U ",
"mXkXF.r.b - 4 8 3 q #.s.s.H.Z.q.u w t L n.S.D.mXhX-X[.[.[.+X&XSX5X X].P. X5XFX5X,X+X}.}.;Xc.[ o.A.nXh.F L C C  .q.q.q.| Y B n n n n n S i.",
"x.r./ M , 8 4 7 7 @.C.c.q.Z.G.S...0 y H o.o.l.hXzXdX X'.[.#XGXSX5X5X%X5XSXKXFXDX,X>X}.}.;XH.g.w.H.H.@.F L C Z  . . .G C V B B q n q S e.C.",
"y.a.b.r.D e 8 8 q k.H.@.q L C.gXc.A w t A A X.dXNXlX$X}.[.[.:XGXFXGX&XDXKXKXJXFX:XOXOX,XsXnXH.Z.C.j.[ C F Z Z C B G S G Y G B b m n Y a.s.",
"D.fXjXhXn.T > > u Z.G.q.5 w h.gXS.E w 0 q a I N.VXkX:X+X[.{.{.OX.X%X#X$X5X6XXX{.[. X,X,X).i.Z.s.#. .Z Z F C Z B F  .G Y Y Y G n m b S R R ",
"D.m.N.cXjXx.M ; B Z.G.p.7 7 ..G.D.r.r 0 w w V l.MXzX:X>X}.[.( g h l ( P.z h g l }.:X,X,X{.P .. .|  .C Z F B Z G G T C C C T Y S q b n m b ",
"m.N o.jXmXgXE 9 q v.nXs.w 7 D n.hXs.q r r t w @.bXcX<X:X,X X[.l f f f % @ @ g {.,X,XHX,X+XL.^ O.j.p. .u C Z Z C Y  .S b n Y R G n N M b q ",
"x.N e m.NXmXr.N q i.gXZ.B 8 0 h.gXv.B 0 0 q 0 ..z.^ :X,X,X:X+X:X[.c h g l c [.,X,XHXFXGX+X}.'.j -Xg.T B Z A Z S R Y B V B S T Y n n b b n ",
"n.N , ! zXNXn.m 7 @.gXH.| 3 9 e.G.c.Z r 0 0 H ~ o c +X,X,X,X&X,X>X%XXX[.XX$XGX,X,XHXGXFX:X,X,XK./.U.1.P S B B C Y  .S n B B Y R n n n b n ",
"F.W > M dXLXG.W 4 S S.gXi.q 4 @.G.b.V 8 8 H U.J.l ,XOX,X,X,XGX>X%X%X:X$XAXSX>X,XGXHXFXGX:X,XAXI.uXU.4XU.*.P C B Y Y G B b n G R S n q b b ",
"fX8.> N M.VXgXE 7 9 p.G.C.T q u.S.s.q a :.3./.E.L.<X<X,XGXHX:X,X$XOXOXoX$X$X>XGXHXHXHXGX:XFXXX(.3X3.eXT.T.(.3.%.[  .G n b n G Y S n n n n ",
"zXx., , a.NXhXo., 8 F b.G.c.d.Z.b.g.*.U.^.~.4.iXP..X&X&XHXDXHX>X$X&XOX X#X6XAXGXFXHXJX,XHXGXK.!.1XT.0XQ.R.4.U.U.,.<.T n m m D Y S n n q B ",
"BXS.U , a.NXjX/ 7 - 7 ! v.Z.c.k.7.Y.R.Y.~.rXW.0X/.L.}.GXAXFXFX:X$X$X@XXX#XGXHXGXHXHXHXGXFXP.=.iX*.3XpXQ.~.R.7.U.7.,.4.;.Z n S Y B n n n q ",
"mXkXV.E M.xXF.U - 7 7 > D g.R.2.,.U.Y.Q.Y.4X4X2XyXJ.) :XHXGXFXAX>X%XOXOX%XAXKXKXFXHXGXJX{._ -X4X*.^.qX1X~.R.2.Y.(.3.,.J.U.%.G S n N n b n ",
"G.cXkXn.G.fXa.9 > - - t =.U.U.,.=.*.7.R.T.8XW.Q.rXuXj L.HXGXGX$X>XOX%X.X$XAXHXGXGXHXJX Xx -XpX4X=.!.wX!.R.R.,.U.E.3.3.,.U.7.:.C 9 q q q q ",
"0.D.fXgXS.a.M , > , ~ U.U.,.Y.2.=.=.2.2.4.8XR.3X4XrX^.J.`.DXFXAX$XoXoXXX.X:X$XGXGXJXI.J.-X7X8X/.=.2XqXQ.R.2.2.2.~.U.,.U.2.U.U.T.&.H N N 9 ",
"> M / 8.e.e.M , a :.7.,.U.Y.U.E.,.*.,.3.4.8XR.W.3X6.yXuX_.I.$X&X$XOXXXXXXX.X%XAXAXI.(.qX4XR.rX6.,.3XrX~.R.2.Y.U.R.E.2.E.U.U.U.E.E.U.%.w b ",
": - , ! n.F.r.~ U.U.U.T.(.E.E.U.R.2.,.3.4.8X~.R.4X3X1X3XrX4X_.).XXAXGX%X.X%X.XXX)./.8X7XW.qXrX5.Y.4XwXR.E.Y.Q.Q./.Q.E.Q./.E.E.E././.E.K 9 ",
"& > E N.MXMX-XT.~.E.E.4X!.^.E.E.E.U.3.2.U.8X1X!./.2X4X4X3X0X8X~./.uXpX).)./.^.0X9X-XqX4X5.0XQ.T.Y.1XqX~.Q.R.8X^.^.!.^.^.3X^.^.^.Q./.9X7.q ",
"- N n.gXzX-X(.2XU.^.4X3X8X3XE././.!.R.Y.R.3X0X1X4X^.!.~.0X4X1X3X4X/.Q.!.!.!.7X2X3X2XpXT.3.wXQ.T.R.3XaX2X1X!.9X3XQ.3X-X^.^.Q.3X-X8X9X3X9X:.",
"& ! S.F.yX/.Q.2X9X^.^.^.^.9XQ.T.E.^.Q.R.R.qX0X3X3X8X7XQ.9X3XQ.4X4X9X8X7X~.8XtXW.~.~.iX5.2X4X~.7XR.3XrX0X1XW.0X3XQ.4XuX8X^.E.qX4X9XwX8XuXpX",
"- N / ! 7XsX7X-X^.9X9XE.4X9X1XY.R.~.!.R.R.qX0X0X1X4X1XT.4X0X~.W.!.1X^.3XT.U.8XQ.6.!.iXR.2XW.0X0XW.3XrX7X1X~.3X4XQ.4XuX^.T.3XuX3X9XtXtXaXsX",
"& & > t yXyXiX/.9X3XuX/.^.9X4X2.R.!.3XY.Y.0X3X8X0X3X4X2X1X7X2XT.1X2X4X0XY.R.qXR.2.8XtX1X2X4.0X4XW.4XaXtX1X!.1X1XQ.3X4XQ.Y.9XiXY.tXpXuXaXaX",
"* & & =.ZXrXiXuX^.8XqXQ.^.uX9X3.Y.2X3XQ.R.Q.0X0X4X1X1X2X2X4X2XY.2X7XQ.Q.W.Q.0X4.>.0XrXrX4.1.4X3X4.qXiX0X0XQ.Q.2X~.4X9XE.Y.aXwX1.iX9XiXaXaX",
"* * ; ^.sXqXwXuXR.^.4X3X^.uX4X3.Y.W.3XQ.R.Q.0X8X4X4X4X1X2X4X2XY.2X1X1X2X4X^.1X6.>.4XiXrX5.3.4X1XY.0XrX0X1X2X3X2XR.4X9XR.3XZX3.R.iX8XwXuXaX",
"& & s sXpXuX0XiX^.Y.3X1XE.uX0X3.4.4.2X4XY.W.0X0X4X4X4X2X2X2X2XY.2X1X1XQ.4X1X!.W.*.3XtXaX3.3.2X2XY.0XrX8XQ.3X0X2X4.8X!.R.aXrX*.7X9X4XqXuXaX",
"* & 7.sXiXiX^.qXuX3.!.Q.T.iX3X5.4.>.2X2XR.W.4X0X3X2X1X1X2X2X2XY.1X1XQ.T.1XQ.1X5.>.0XtXtX1.3.2XW.R.qXqX1X~.0X0X1X5.1XQ.3XZX1.>.wXQ.4XwXqXaX",
"& 5 yXuXiXuX9X8XiX4.4.2XY.iX1X5.5.>.W.tX6.W.3X2X3X2X2X3X2X1X1X2X2XW.2XT.~.4.2X>.*.4X4X4X5.5.2X4.4.rXqX!.2XtX2X1X1.6.2XtX0X&.2X2XQ.9XwX8XuX",
"O ~ sXuXuXuXeX9X4X1X>.6.4.iX1X1.5.>.5.tX5.2X3X4X3X2X2X3X2X2X1XT.4.W.2X2XR.W.2X&.2XpXpX2X5.5.2XT.Y.wX0X~.2XtX2X1X5.5.0XtX1.>.0X5.!.wX0X^.uX",
": U.sXuX9X9XqX7XQ.3X>.>.5.rX1X>.5.*.5.tX4.2X2X4X1X2X2X3X2X2X2X2X2XW.2X2X5.4.5.&.4XU.4X_ *.,.*.*.Q.0X0XW.0X0X2X2X1.1.tX2X&.6.6.5.3XwX9X~.yX",
"r 9XpX9X9X9X4X1XQ.2X4.&.7.rX6.>.5.&.5.4X5.6.3X3X3X2X2X2X2XT.2X2XW.,.2.*.=.>._ _ 4X_ T._ _ *._ =.2X3X9XQ.7X0X2X2X1.1.2X6.>.2X>.5.!.wX3X~.9X"
};
