/* XPM */
static char *de85518128a94823db10b4ca4991629ahFkB6WHlPDYT4b45[] = {
/* columns rows colors chars-per-pixel */
"64 59 256 2 ",
"   c #0C0B0C",
".  c #0A0507",
"X  c #0C0E13",
"o  c #0E1115",
"O  c #0E131A",
"+  c #121215",
"@  c #13141B",
"#  c #1B1A1D",
"$  c #18181B",
"%  c #100D0F",
"&  c #231A1D",
"*  c #141622",
"=  c #161923",
"-  c #1B1A24",
";  c #1D1D29",
":  c #181824",
">  c #211E2B",
",  c #231D25",
"<  c #271F30",
"1  c #1D222B",
"2  c #1D3531",
"3  c #23222D",
"4  c #272428",
"5  c #262532",
"6  c #292633",
"7  c #2B2936",
"8  c #2E2C39",
"9  c #272933",
"0  c #332D3B",
"q  c #352B33",
"w  c #33313E",
"e  c #3A3236",
"r  c #2F2E2F",
"t  c #483739",
"y  c #4F3037",
"u  c #6A3739",
"i  c #11563D",
"p  c #0F5437",
"a  c #1A563C",
"s  c #353343",
"d  c #3B3747",
"f  c #373041",
"g  c #463B49",
"h  c #503D4A",
"j  c #6C3C45",
"k  c #145D43",
"l  c #38484E",
"z  c #27594C",
"x  c #334E4D",
"c  c #0A6B46",
"v  c #16674A",
"b  c #0A734A",
"n  c #087747",
"m  c #1D6A53",
"M  c #1C6551",
"N  c #1B7C5B",
"B  c #167856",
"V  c #0E7850",
"C  c #266A58",
"Z  c #237359",
"A  c #2C6554",
"S  c #2C7864",
"D  c #347769",
"F  c #3C7C73",
"G  c #564649",
"H  c #484355",
"J  c #4D4A4F",
"K  c #674A49",
"L  c #695457",
"P  c #745351",
"I  c #524E65",
"U  c #665670",
"Y  c #756C6C",
"T  c #5F6B5E",
"R  c #6D453C",
"E  c #983945",
"W  c #8E5756",
"Q  c #AE444F",
"!  c #94675D",
"~  c #A96759",
"^  c #8A6867",
"/  c #966967",
"(  c #9A7476",
")  c #92716E",
"_  c #BA7769",
"`  c #A97876",
"'  c #B57C76",
"]  c #A76E69",
"[  c #A15B63",
"{  c #C87670",
"}  c #D45760",
"|  c #863637",
" . c #098657",
".. c #16855C",
"X. c #09965B",
"o. c #06864D",
"O. c #1B8A63",
"+. c #0D9C6B",
"@. c #0A9A65",
"#. c #129C6D",
"$. c #189768",
"%. c #199C73",
"&. c #0E8E61",
"*. c #258669",
"=. c #3A8778",
"-. c #279976",
";. c #35957C",
":. c #2C8F6F",
">. c #0CA36B",
",. c #0CAB6D",
"<. c #09A568",
"1. c #0DA972",
"2. c #1CA67C",
"3. c #17A876",
"4. c #0BB374",
"5. c #0CB978",
"6. c #15B57A",
"7. c #13AC6B",
"8. c #25A77A",
"9. c #26B37C",
"0. c #29AD73",
"q. c #08AB5C",
"w. c #43897B",
"e. c #508974",
"r. c #798574",
"t. c #16C67C",
"y. c #0EC37A",
"u. c #2DC27F",
"i. c #AB837D",
"p. c #BA847B",
"a. c #988477",
"s. c #C58479",
"d. c #D28C7C",
"f. c #EB8C7E",
"g. c #796D92",
"h. c #BC7682",
"j. c #8C778E",
"k. c #D07D8B",
"l. c #399783",
"z. c #2E9A81",
"x. c #1DAA81",
"c. c #19B984",
"v. c #0FBE80",
"b. c #2BAB84",
"n. c #27A883",
"m. c #36AA8A",
"M. c #24B987",
"N. c #36B58B",
"B. c #31B893",
"V. c #478C85",
"C. c #49938A",
"Z. c #549A94",
"A. c #509791",
"S. c #759189",
"D. c #4CA692",
"F. c #55A599",
"G. c #45B798",
"H. c #4CAD90",
"J. c #6EA897",
"K. c #59B5A5",
"L. c #63B1A9",
"P. c #1AC588",
"I. c #1CD18E",
"U. c #27C48A",
"Y. c #29D68B",
"T. c #26C894",
"R. c #37C898",
"E. c #28D898",
"W. c #36D898",
"Q. c #32C989",
"!. c #3AE399",
"~. c #24E08D",
"^. c #37D7A3",
"/. c #30D6A2",
"(. c #36E3A9",
"). c #29E1A2",
"_. c #45DA9C",
"`. c #45C79B",
"'. c #44E59E",
"]. c #49C9A7",
"[. c #47D9A8",
"{. c #59DAB4",
"}. c #53D4AE",
"|. c #49E6A7",
" X c #56EAAC",
".X c #4BE6B3",
"XX c #58E9BA",
"oX c #5AF2B2",
"OX c #63ECB6",
"+X c #67F2B7",
"@X c #73F4B9",
"#X c #6ECFA8",
"$X c #69F5C6",
"%X c #76F8C8",
"&X c #7CFCD2",
"*X c #6BEFC7",
"=X c #5EE9C1",
"-X c #928A86",
";X c #B98885",
":X c #BA9695",
">X c #B08C89",
",X c #85B8A5",
"<X c #A2B19E",
"1X c #C58B86",
"2X c #CA948A",
"3X c #D5978A",
"4X c #C99795",
"5X c #D69A95",
"6X c #D38A8A",
"7X c #E8998F",
"8X c #DAA298",
"9X c #E6A79A",
"0X c #F0AE9A",
"qX c #D09DA2",
"wX c #D9A8A6",
"eX c #D2B0AF",
"rX c #E7ABA5",
"tX c #EAB2A9",
"yX c #F5B8AA",
"uX c #EBB8B7",
"iX c #F7BDB5",
"pX c #ECACAC",
"aX c #9FCCAF",
"sX c #FDC2B7",
"dX c #EAC3BC",
"fX c #C1D2B6",
"gX c #F0BDC2",
"hX c #DFB8C2",
"jX c #86F9C9",
"kX c #93FACD",
"lX c #84FCD3",
"zX c #8CFDD8",
"xX c #9BFFDD",
"cX c #95FDD7",
"vX c #8EE4C8",
"bX c #A6FDDA",
"nX c #B3F4DB",
"mX c #9BFFE2",
"MX c #A3FFE3",
"NX c #ABFFE3",
"BX c #A9FFE8",
"VX c #B8FFE8",
"CX c #BCFFF2",
"ZX c #FACAC5",
"AX c #F2CDCD",
"SX c #C3FFEB",
"DX c #CBFEED",
"FX c #C5FEE7",
"GX c #D2FDEF",
"HX c #CEFEF2",
"JX c #C1FFF0",
"KX c #D3FEF3",
"LX c #DBFDF6",
"PX c #E7FDFB",
"IX c #FFE2DD",
"UX c #A69CC1",
/* pixels */
"c p p p p v v q._.u.B A m m A C 8.B.*.D :.B.B.l.V.A.A.D.D.].VXLXkXH.H.;.H.m.`.XX[.z.;.b.|..Xb.8.%.8.[.lXlX+X$XoXP.>.7.<.>.>.q.<.",
"p p p i k a ..+XnXjX$.m A A C Z N.B.D D D G.R.m.A.A.Z.D.H.K.bXPXCX}.H.H.H.H.G.XX{.B.-.b.[.(.b.8.8.%.6.W.XX.X(.I.5.,.7.q.<.<.,.W.",
"i p i k k ..OXFXGXbXu.Z C C C D B.B.F D F l.R.G.F.F.F.F.K.F.#XnX,Xw.=.w.w.;.G.}.OX}.N.N..X^.9.8.8.2.2.7.t.E. X+XoXY.4.7.,.<.W.cX",
"7.v k k v [.bXnXFXVX_.O.Z C S D m.R.l.F w.V.G.].K.J.L.Z.z 1 $ o     + $ # 1 2 m.XXXX.X[.[.T.9.0.8.9.3.9.|.MXSXKXGXxX!.4.4.4.(.lX",
"@X7.k k .. X@X'.bXDX@X$.S C D D m.].m.l.w.C.F.].{.L.x + . %   .   # 4 4 $ $   + e._._._.'._.u.0.9.9.6.W.NXGXkXkXKXPXjXI.4.,.6.I.",
"FX+Xo.k v ....7.jXDXkX0.S D D D l.^.G.C.V.A.F.{.L.; .   % % + + + + + r r #   # 4 u. XjXkXkXjX!.U.9.6.OXKXFX'.~.kXPXGX X4.7.<.<.",
"DXMX9.c v z v ..+XDXbX_.*.D F F V.G.].Z.V.Z.F.}.2   $     . + 4 r 4 +   # r # + & :.FXGXLXPXGXkX!.U.U.@XPXFX!.t. XHXPXkXt.,.,.>.",
"VXFX XV k v M B _.VXFXOX:.*.D =.=.G.}.K.Z.Z.L.2   $ # $ # + % $ $ 4 4 4   4 4 + + % ,XFXbXFXPXGX@XY.U.jXPXFX Xt.W.NXPXNX~.4.1.1.",
"xXGX@X$.v v m m 0.bXGXjX0.=.=.=.F A.].{.L.L.x . # $ # % 1 #       # 2 r + & 4 r # % 2 jX@XkXLXPXnX'.Y.@XPXGX+Xt.I.jXPXDX|.4.4.,.",
"@XDXbX9.v M m m -.jXGXbXQ.:.=.=.V.V.F.].{.K.& 4 r 4 $ & # # $ + + 4 r t & & e r r # % #X X@XFXPXDX+XY.+XGXPXjXY.t.+XLXKX Xy.4.4.",
" XFXVXQ.v m m Z O.+XDXVX@X}.G.=.V.V.A.Z.L.V.q q 4 G r $ 1 , # # 4 t R t R R t r 4 + # #X X'.bXPXLXjXY.'.FXPXbX!.t. XDXLX+X5.4.4.",
"Q.VXVXQ.v M M B 9.jXGXGXVXMXXX;.V.V.A.Z.F.I q + $ ! ! y r 4 # $ t ! W p.i.~ s.T r + r bX+X_.jXLXPXbXW.W.cXPXGXoXI.|.DXLXoX4.4.4.",
"u.NXVXQ.v m v -.$XnXVXxXjX{.H.=.l.V.C.Z.L.F e L ! 2X4Xp._ R t G ! s.d.9XtXyX0Xd.R + F LX@X_.@XGXPXnX'.U.+XKXPXcX!.+XKXSX!.5.4.4.",
"_.FXxX3.v m m *.[. X`.R.N.8.=.=.V.V.V.Z.%Xr.L :XtXwXtXd.p.s.p.d.p.p.2Xf.9XtX9X9X! r T PXkX'. XFXPXnX'.u.W.cXPXLXxXNXHXlXY.4.4.4.",
"bXbX|.o.v m m m N O.R.OX%X*X].l.l.V.V.#XmXS.^ eXdX8X2Xp.~ ~ ~ ] i.~ s.d.d.d.0X0Xd.R r.PXnX+XoXFXPXbX!.U.U.W.cXFXDXNXjX!.y.5.4.4.",
"%X`...v v v m Z Z `.lX*X=XzXzX}.l.V.C.L.{.S.>XeXdX9Xs._ ~ ~ ~ ~ ~ ~ s.d.d.0XtXdXtXa.r.PXGXkXjXFXPXkXY.U.U.P.E. X X X'.I.y.5.5.4.",
"@. .B B v M m m *.*XzXN.:.XXMXlXG.V.C.A.A.j.>XAXAXrX5X3Xs._ ' ;X' 4XwXpXpX9X0XgXsX3Xr.FXPXGXFXLXFX+XU.M.M.M.P.P.I.$XNXoXy.5.5.5.",
"6.6.P.6.N v m C 8.lX&Xn.S m.lXNX{.l.V.C.A.S.5XhX;X] h.>Xp.1X4XeX4XeXeX4X>X>X;X;XyXd.e.jXFXGXDXMX@XW.U.M.U.M.c.I.%XDXPXkXI.5.5.4.",
"3.$.P./.c.N m m b.cXlXN.D :.=XBX%XD.V.A.Z.Y 5X:X-XY t g G P ` 1X;Xh.G t K ^ :X>X4X3XL ,XOXOX=X.XW.T.M.M.M.c.c.=XNXHXPXNXE.5.5.4.",
"..i ..Y./.%.m m n.lXxXB.S *.G.MXcXG.V.l.-X| 2XeXAX;XP t t R ] ;XeX;XW K K j.rXZXtX3X{ 7XR.R.^.=XXXT.M.c.c.c.T.&XzXjXKXKX|.v.5.v.",
"V k v 3.(.M.N m -.*XMX}.*.S m.zXcX].l.l.a.d.4XtX` W G h ^ u 2X3XiXrXW K t ^ / 5XsX8XsX8XB./.=XzX=XU.x.c.c.x.c./.E.!.CXLX+Xy.5.4.",
"V p p B P.P.N M B }.zXXXO.C =.=XzX].F =.a.sX8X8X4XwXs.` ` ] 5X{ 9XyX1X~ ' 9XrX8XyX9XyXeXz./..X=XXXM.*.%.%.%.#.#.#.6.%XCX+X4.@.@.",
"$.v v v P./.%.B N B.zX&Xm.D *.{.mX{.l.l.-X~ 5XtX3Xs._ ~ { 8X3X{ 0XiXpX6X{ 6X7X0XyXyX7X<XT..X/.}.*XR.%.x.%.%.%.%.%.4.OXJXcXP.+.+.",
"c.V v B M..XM.N N b.lXBX{.-.=.*XBX{.l.m.J.Q 8XZXrX6X{ { s.5Xs.{ 6X9X9X7Xk.7X7XyXsXyX7X,XB.G.B.(.&X.Xn.x.x.x.x.%.3.4.|.SXVX(.4.1.",
"T...v v 2.(.U...N O.}.MXlXR.B.%XzXG.l.z.A.wX8XZXgX7X6X1XW uX8X1X0XyXpX1X6XgXgXZXZXyXdXK.b.m.m.R.$XXXM.2.2.2.%.1.3.7.Y.NXHXoX4.<.",
"E.#.v v #.^.T.N N Z %.$XmXlX&X&X.Xz.l.l.-.fXpXZXIX5X1X] j qXpXqXgXiXpX6X[ 6XgXIXZXyXeXM.N.b.b.M.=X$XB.%.3.2.#.%.#.7.t.cXKXjXY.t.",
").P.V k $.(.c.N N N N -.].XX{.R.n.:.;.z.z.J.tX0XtX1X[ W ! ( j.h.1Xh.>XqX` [ 6XiXsXyXG.b.b.b.b.M..X$X^.3.%.#.1.#.#.>.P.lXKXVXzX+X",
"Y./.3.X.c./.3.B N ..S ..O.$.9.|.}.n.:.z.;.8.<X9X3X[ y Y :X) P W W ( :XeX>XP ] 0XyXeX`.b.b.b.b.n./.$X^.3.1.%.#.#.+.P.$XbXSXNXlX.X",
"#.T.T.P.P.x.O.B N N N *.O.8.OXCXmXR.-.-.;.b.J.8X2X/ K / ;Xh.[ Q h.6X5XqX] P ~ 9XrXeX].n.n.n.x.x.U.=XXXP.x.3.#.#.+.P.$X%X XE.t.>.",
"c ..%.#.&.&.V B N N N N $.oXVXLXSX X8.-.-.b.H.1Xp.p.;XW K dXhXhXhXAXIXqX/ ;X' wXwXeX.Xn.n.n.x.x.T.$X%X.X).c.#.+.#.7.4.4.5.(.E.>.",
"c k b x.R..X(.x.N ..N .._.xXNXCXHX%X9.-.-.8.Q.a.` ` ;XwX5XqX5XeXhXgXwXqXuX2Xp.8X5XaXXXx.n.n.x.T.(.XX.X(.P.2.#.+.+.@.X.4.XXMXlX6.",
"c c M.$X$X&XmX%XM.B N ..R.$X_.kXKXzXM.-.-.8.U.#Xi.' 1X8XAXgXh.{ h.k.pXIXgXwX2X2X-XlX].2.n.2.x.B.T.U.6.4.#.#.#.+.+.$.1..XzXCXmXY.",
"c &.$X&XM.8.%XMX$X#.N B O.%.7.@XKXNX_.$.-.-.8.oX-X/ ;XqXrXpX4X' k.hXgXZXpXuX4X/ #X%XM.2.2.x.x.2.3.3.c.c.c.x.+.+.+.+.E.&X$XzXBX.X",
"c n.zX$X&.c M.cXxXR.V N ......[.CXFX X3.$.-.%.Q.fX] Y :XwX5X' ^ ^ h.pXpXwX:XY ] aXU.8.2.x.2.x.3.x.v.c.v.T.v.1.+.+.+.P./.v.=XVX*X",
"c M.mX%X+.v &.$XNXoX&.N ......Q.MXKX@X6.:.%.%.7.aX0XG ( eX5X1X] ( qXwXpX:XL ^ iX:X0.%.2.x.x.%.3.c.c.1.3.v.P.v.+.+.+.+.>.<.[.VXzX",
"c 9.mXzX3.b V ].NX%X#.B N N ..7.jXHXcXu.3.*.v T 3XyX` G >X>X` p.h.4XqX:XL K yXsXf.s.P z *.2.x.1.T.c.3.+.x.v.v.x.+.+.@.>.X.T.mXNX",
"n 3.zXmXU.b c M.xXzXM.V B ..N &. XHXCX^.M 4 q _ rXtX7X/ G K P / ) ( a.L L tXsXsXrX9X7X~ q x S 6.I.c.+.+.+.c.I.v.+.+.+.<.@.5.&XVX",
"n &.*XBX|.V b $.&XxXT.V B B B X. XnXJ.x 4 - y 7XtXtX8Xd.i.G e G t t t ) sXsXsXsX0XyX0X6Xe 3 6 s z.I.x.+.+.x.P.v.<.<.+.+.@.<.=XVX",
" .n .XBX$X+.v &.*XmXR.V B V &.-.D s $ , r 1 e 9XtXtX8Xs.3X2X! R L ) 4XsXsXsXsXyXyXyXyX>X5 6 0 < < z #.1.+.+.v.P.1.@.+.+.+.@.^.BX",
" .c n.zXxXT.c  .*XzXU.V V m x 3 , 7 > > w 4 2 ;XsX9X9Xd.d.8X3Xs.2XtXtX0XyXyXyXyXiXsXrXK ; 0 7 3 5 < < z &.x.v.P.1.+.+.+.+.@.W.mX",
"X.c  . XNX%Xc.M.&X&X3.z w w q @ , 8 $ , f 6 ; L yX9X9X3X3X8X3Xi./ 2XtXiXyXyXyXyXsXsXi.2 7 7 6 : 3 9 3 , 6 M 3.I.1.@.+.+.+.E.$XBX",
"X.n c 3.$XmX%X$X$XF 7 6 4 9 5 X $ 5 + - 0 5 6 5 i.sX8X8X3X3X8Xp.;X4XtXtXtX0XyXsXsXqXt 3 7 7 5 + $ 5 4 3 4 5 s *.1.+.+.@.1.).=X.X",
"o.c c c #.[..X(.w.6 - 5 3 5 - @ @ > + : 7 5 6 5 w 1XtX5X3Xd.p.i.( p.8X8XtXtXyXZXrXh 5 8 6 > > + $ 5 - , 3 9 8 6 x N +.+.@.1.1.1.",
"n c c b V X.t.D 0 w # - 8 # # # + - o , 7 < 5 6 5 w ` 9X8Xs.i.) / ` 2X8X0XsXsXwXG 1 8 9 6 > : + # 3 # - # 3 9 8 5 7 C @.@.@.1.P.",
"n c b b o.Y.e.t s s 5 $ > @ : : @ $ o - 7 5 > 5 5 5 3 L ;X3X;X>X` p.1X8XyXtX( 0 = 9 6 6 8 ; @ + - 3 $ - @ 6 5 8 s d d &.@.@.v.E.",
"n n b c 7.`.H s 7 s 6 - $ + @ : o @ @ = f 6 5 > 3 > 5 ; 6 K ^ h.` ] ( i.) g ; > 5 9 5 8 5 * + @ 3 - $ @ @ 6 5 < < d d C &.@.I.I.",
"n n b n 6.e.f s 8 8 5 , : @ + - + @ X O 6 6 5 > ; * 3 3 - * * : 1 3 3 - @ - 5 ; 9 > 5 0 ; @ o $ 5 * @ + * f ; * s s s l &.+.).I.",
"o.c b n 7.H s 7 w 5 5 : > + X - ; @ O O 5 5 ; 5 5 : - 3 > > ; * $ = = - > > ; ; 5 ; 5 7 @ O o - 5 @ @ + : s * * s s s H N +.I.).",
"o.n c o.A g f < 8 < 9 * > @ o : ; : + o : 5 = > 9 ; * ; ; > ; : ; : ; ; ; : : ; 3 ; 6 9 @ @ o > 5 O O @ 5 6 X 7 s 6 s g C @.I.).",
"q.n n b l s 6 8 = 5 6 = > = X @ < : o o * 3 : ; 6 > = = ; > ; ; ; ; ; ; ; ; ; s ; : 5 1 O @ + > 3 O @ @ 7 = O s 7 7 s d I X.v.).",
"7.o.n z g s 5 8 3 O 6 - - - o o > ; @ X * ; * = 6 < ; * ; > ; : : ; ; : : ; 5 < : : 9 ; @ @ @ 5 ; O O * 6 O 1 8 5 s 6 d H B ,.E.",
"u.o.n x d s ; 3 6 : = ; = > o X ; 3 @ + * : * : 5 5 ; : ; > > ; : : : ; : 5 5 ; : - 6 ; O o @ 5 1 O + - 5 X 8 3 5 6 7 d H m @.P.",
"'.q.v l w w 5 = 3 - + = $ 3 O X : < : + * * * * 6 5 > ; : > > ; = ; ; : ; < < ; : - 7 : O o = 6 5 O o 1 = @ 9 - 5 5 8 s d A  .1.",
"@Xq.v g w 0 9 @ * : @ ; @ > @ X * < : + * * * * 5 5 < ; ; ; < - = : ; ; ; s 5 : : > 6 : @ O - 6 ; O o ; @ ; ; = 5 5 9 s d I  .&.",
"kXt.v e 0 6 6 ; X $ @ : * ; * X @ ; : @ O * O * : 5 1 ; : : : : : ; ; ; < 5 = O : > ; * O + ; 8 ; X X ; @ 1 = $ 5 ; 8 s d I N  .",
"nX'.A t 8 1 5 3 * X O X @ : @ $ , K q & : & < < q y g y y < > : ; ; > s j u y y : 6 J t 3 $ 7 H H s 9 * - - O = ; ; 9 8 d d B  .",
"SXkXx 8 0 5 * : - @ X % % @ * > K 7XQ u | } U < Q Q } } } Q h * ; 7 9 G 0Xf.f.P = L i.t 9 1 0 g g.UXU X = o o : @ 3 3 8 f g m  .",
"CXvXd 6 7 6 ; @ @ @ o X X + : 5 P 7X} Q Q j.< : j E Q } } } W ; ; 6 3 K I T S.l h ` J # 1 1 q g I g.H @ @ X @ o - 1 5 7 9 d M c ",
"oXN.0 9 3 5 > - + X o X   X : ; P } } } } U < ; h E E { :X^ G 7 < > t ) I I I 0 Y L 5 6 3 # w H d U I @ X X O @ ; ; 3 5 9 d z n "
};
