/* XPM */
static char *_f22a1a6881e44b4ad795496d6861e61V6YxctJrMghLYgk9[] = {
/* columns rows colors chars-per-pixel */
"64 59 251 2 ",
"   c #0B0B0D",
".  c #060608",
"X  c #0D0D13",
"o  c #0C0E18",
"O  c #120E14",
"+  c #160D19",
"@  c #0E1115",
"#  c #0E111A",
"$  c #0F1D1B",
"%  c #121215",
"&  c #13141B",
"*  c #1B1A1D",
"=  c #18171B",
"-  c #12080D",
";  c #281C1C",
":  c #141621",
">  c #161923",
",  c #1A1A24",
"<  c #1C1D2A",
"1  c #191723",
"2  c #1C0D20",
"3  c #221E26",
"4  c #211F30",
"5  c #0A2E26",
"6  c #1F212D",
"7  c #192727",
"8  c #0B3C2C",
"9  c #073727",
"0  c #1F2131",
"q  c #193834",
"w  c #12392E",
"e  c #23222D",
"r  c #272429",
"t  c #242434",
"y  c #292635",
"u  c #2A2936",
"i  c #292738",
"p  c #2B2B3C",
"a  c #262839",
"s  c #332D39",
"d  c #35333C",
"f  c #2D2D2E",
"g  c #493637",
"h  c #503A3A",
"j  c #05442B",
"k  c #03532C",
"l  c #0C4432",
"z  c #0A4C34",
"x  c #0A4E37",
"c  c #14473A",
"v  c #0C533B",
"b  c #065837",
"n  c #13533D",
"m  c #03633C",
"M  c #06663C",
"N  c #006E37",
"B  c #25423B",
"V  c #66433E",
"C  c #2E2E41",
"Z  c #312F41",
"A  c #2D3342",
"S  c #343244",
"D  c #39364B",
"F  c #3B3A4D",
"G  c #363547",
"H  c #3D3C51",
"J  c #433E50",
"K  c #1B4D44",
"L  c #0D5B42",
"P  c #1D554A",
"I  c #175947",
"U  c #1F5B52",
"Y  c #264948",
"T  c #22554E",
"R  c #225B53",
"E  c #2A5956",
"W  c #3B5650",
"Q  c #046C43",
"!  c #0A6947",
"~  c #15654C",
"^  c #057247",
"/  c #06734B",
"(  c #09734D",
")  c #057B4C",
"_  c #097A4B",
"`  c #1B6853",
"'  c #0B7552",
"]  c #0B7A54",
"[  c #0D7C5A",
"{  c #087A53",
"}  c #137C5C",
"|  c #147656",
" . c #0E6D51",
".. c #266759",
"X. c #28715B",
"o. c #197D62",
"O. c #336866",
"+. c #277765",
"@. c #33746B",
"#. c #326E68",
"$. c #454557",
"%. c #59484B",
"&. c #71514E",
"*. c #535468",
"=. c #656763",
"-. c #845B57",
";. c #90655E",
":. c #896563",
">. c #976C67",
",. c #9C726C",
"<. c #9B7673",
"1. c #907071",
"2. c #A6746B",
"3. c #A77B77",
"4. c #B27A74",
"5. c #996260",
"6. c #04844A",
"7. c #058353",
"8. c #0C835B",
"9. c #0B8A5D",
"0. c #078956",
"q. c #13855B",
"w. c #06965A",
"e. c #06A45D",
"r. c #0D8B61",
"t. c #128C64",
"y. c #1A8666",
"u. c #0B9463",
"i. c #0B9967",
"p. c #159769",
"a. c #189B73",
"s. c #1F8571",
"d. c #25856C",
"f. c #298773",
"g. c #328977",
"h. c #279878",
"j. c #318862",
"k. c #0AA767",
"l. c #18A979",
"z. c #0DB576",
"x. c #18B778",
"c. c #12AB6E",
"v. c #23A779",
"b. c #24B97C",
"n. c #37A77C",
"m. c #4A897A",
"M. c #1BC77B",
"N. c #25CA7B",
"B. c #B9847A",
"V. c #AB827C",
"C. c #C6867A",
"Z. c #9E7A81",
"A. c #2F9A83",
"S. c #1BB987",
"D. c #1DAD84",
"F. c #28AA86",
"G. c #27B889",
"H. c #36B692",
"J. c #4DAF8D",
"K. c #69B294",
"L. c #649786",
"P. c #19C589",
"I. c #1AC992",
"U. c #25C989",
"Y. c #28D28A",
"T. c #28C999",
"R. c #37C899",
"E. c #29D497",
"W. c #39D999",
"Q. c #31D48E",
"!. c #39E299",
"~. c #2AD7A5",
"^. c #37D8A7",
"/. c #38CCA5",
"(. c #39E4A9",
"). c #38E8B4",
"_. c #2FE8AE",
"`. c #1FD7A1",
"'. c #45C79B",
"]. c #46D9A7",
"[. c #4ED3AC",
"{. c #49E8A8",
"}. c #54E8AB",
"|. c #48E7B8",
" X c #56ECB6",
".X c #4CF2BB",
"XX c #58F3B8",
"oX c #58F0AC",
"OX c #65F4BB",
"+X c #69EBB9",
"@X c #5FD8A9",
"#X c #59F6C5",
"$X c #5AECC3",
"%X c #69F9C6",
"&X c #73FDCB",
"*X c #7CFDCD",
"=X c #76F9C5",
"-X c #79FED3",
";X c #66ECC4",
":X c #B88985",
">X c #BB948B",
",X c #B28D8A",
"<X c #95AA96",
"1X c #C28C83",
"2X c #C78C86",
"3X c #CB958B",
"4X c #C99488",
"5X c #D4978B",
"6X c #CA9994",
"7X c #D39D93",
"8X c #D79C98",
"9X c #D28C8F",
"0X c #D4A29C",
"qX c #DBA49B",
"wX c #DAA497",
"eX c #CAA69D",
"rX c #E2A79B",
"tX c #D49DA4",
"yX c #DDAAA4",
"uX c #DCADAB",
"iX c #D9A5A4",
"pX c #D7B1B1",
"aX c #E1ADA3",
"sX c #E5ADA8",
"dX c #E5B3AB",
"fX c #E8B4AA",
"gX c #ECBAB3",
"hX c #E9B7B7",
"jX c #F4BDB4",
"kX c #F3B0AC",
"lX c #E0948D",
"zX c #F7C2BC",
"xX c #EDC0BF",
"cX c #EABDC2",
"vX c #D9B9C0",
"bX c #85FDCA",
"nX c #8BFFD4",
"mX c #88FFD5",
"MX c #93FFDA",
"NX c #9BFFDC",
"BX c #96FED4",
"VX c #98FCCD",
"CX c #A3FFDD",
"ZX c #AAFFDE",
"AX c #9DFFE0",
"SX c #ABFFE4",
"DX c #A4FFE2",
"FX c #B6FEE7",
"GX c #8BD9C0",
"HX c #F2C6C6",
"JX c #82E0BF",
/* pixels */
"VXbXN.N b.VXVXN.b l x..X^.] a.).G.n c c Y ~ } +.X.` R T T O.#.@.[.nXSXBX'.+.X.+.+.h.U.a.` ..y.I.l.| ! l.XX^.0.! u.|.(.7.Q / Q 9.",
"bXVX{.6.c.OXVXN.k w n Y.)._.E.T.| c Y K T Y T X.+.d.+...T E T f.|.%XMXSX@Xd.+.+.+.h.T.v.o.` y.G.S.q.~ u.)..Xc.! i._.E.7./ Q ) z.",
"oXVXbXN.N.bXbXN.k w w v a.l.c.8.n P n Y Y T +.f.+.@.F.+.f 7 % @ T d.+XDX&Xn.@.@.+.f.T.G.+.| y.S.U.q.| _ I.#X~.u.S._.P./ ' / / 0.",
"b.bXVXOXOXVXOX6.w l l B c n v.W.a.T T T T E d.f.O.E A.q 7 f * % - . 7 B R +...+.@.g.G.R.h.+.+.S.G.q.| | t.E..X_.E.`.w./ ) ) ( / ",
"k N.OXbXOXoXk.M l l l c c v.=XnX].~ R E E ..h.h...E 7   % % * r % % % % - = = r X.j.F.R.F.d.q.G.S.y.X.| | w.S.S.P.z.e.0._ 6._ { ",
"$ k w.c.M.N.b.w.z c c c p.%XBXCXXXd.R R E O.g.n 7 <       = %   % r r * 3 * $ * $ B @.G.T.F.v.G.v.q.| q.| q.w.Y. X=XOXY.w.7.) k.",
"9 5 k b.oX=X&XOXv.b c ~ T.XXOXBX&Xv.E ....O.R f & * , % = =   . . * r .   =   = % % r c F.T.N.x.l.p.q.q.q.0.W.nXnXnXSXMXY.w.{ w.",
"5 9 q.OX=X!.OXBXOXp.c I y.p.b.bXBXR.X...O.W * * 1 3 * = r =     % = f r % - f r r * 7 ; T G.'.{.{.Q.c.q.q.c.=XZX{.Y.bXFXOXk.{ ) ",
"5 9 G.MXoXN v.nXBXW.! c K c d.OXNX}.+.O.O.B %     %   ; * r   % s u u f f ; f s f ; r ; n OXVXZXZXbX].c.q.U.mXCXQ.e.(.SXNXY.0.7.",
"5 j Q.AX}.^ M }.DXOX9.K T P | }.NX=Xh.O.@.Y % %   = = ; f f ; r s d g f f ; ; % r r * % n VXZXbXVXFXbXY.w.U.MXZXQ.w.M.nXFX{.w.{ ",
"5 8 Q.BXOX0.k N.MXmXl.K P P R '.BXnXH.#.@.u -   % ; ; &.2.V >.2.,.V.4.2.,.-.V ; = r f = 9 n.+X!.+XFXFXoXc.U.BXFX{.e.c.%XFXOXk.6.",
"9 9 G.MXbXc.z p.*XMXQ.I P T ` n.bXNX[.g.@.r %   @ ; -.C.B.C.B.4XC.4X1X4XrXrX5X2.g * d ; f j.+XQ.'.ZXFXOXM.x.&XFXOXc.e.oXFX*Xz.7.",
"9 5 p.*XMXQ.b | OXCX].~ P U R v.*XCXbX Xn.* % ; ; V C.rX3X4X4X3X6X6X0XwXqXrXwX5X-.; r f w j.n.N.N.bXFXVXQ.k.OXFXnXN.w.{.SXnXx.7.",
"9 5 ! oXAXoX_ ! }.BX].~ T T d.].nXDXMX%Xj.; g V 5.C.wXwX3X:XB.1X4X6X6X0XaXrXwXrX-.f 3 3 r K.VX'.N.oXFXFX].k.W.CXSX!.e.(.SX*Xk.7.",
"5 5 j Q.MXmXb.)  XMXQ.I T T h.|.+X[.'.H.Y % V V.C.C.C.wX5X1X:X4.B.B.3XwXqXwXrXrXB.h ; r X.JXFXoXb.}.ZXFX{.k.z.&XFXmX!.OXAXXXe.7.",
"9 9 8  .XXMX=X{.bX%Xp.n T R ..d.h.H.'.'.g.; &.C.wXV.=.V.,XiX8X4X7X0XiX0X6XwXrXfXrX&.g W {.ZXFX=XN.!.ZXZX{.i.u.Y.mXDXMXnX%XM.0.0.",
"8 8 8 l p. X&X%X|.v.I P P U R +./.[.|.$X$XG <.8X<.%.g r s 1.yXyXuX>X*.%.$.&.,XaXfX3.J d H.VXFXCX{.oXZXCXW.w.t.i.U.oX.X(.P.e.w.6.",
"' x 8 8 z ( p.p.8.~ I I I R R A.$X/.g.[.-XJ.>.2X>XpXiX,X,.<.uXiXhX:X&.:.Z.Z.<.wXfX7X%.7 d.oXZXFXBXVXZX&XP.u.t.t.w.e.z.(.{.z.w.0.",
"] x 8 l l l b q.t.p.a.| P U R H.#XH.O.A.;X@X>.2XsX:X:.h &.3.6X8XhX3X>.&.,XyXhXuXrXwX:.Y n.G.XXNXDXMX=XW.a.t.t.r.r.k.{.AXNXE.0.0.",
"l 8 j l l c q.p.| t.D.a.` U ..R.&X/.#.@.[.+X;.5X6X,.1.g &.:.C.5XsX,.%.3 %.:.3XgXwX7X<.m.A.g.F.W.].W.U.c.y.t.r.r.u.E.&XDXSX{.w.0.",
"Q j 8 8 l L a.u.v I p.S.s.U ..H.&X].+.#.L.<X,.9X7X8X6X1X4.C.C.9XsX5X2.4.8X8X6XrXwX3XV.h.A.A.h.h.l.G.~.S.s.r.t.r.k._..X;XSX%Xk.0.",
"i.8 8 8 8 v a.q.c c ` l.a.U P A.;X|.s.=.lXrXB.8XsX3X1X:X3X4X5X9XlXrX9XB.2X8XfXaXwXC.B.<XL.g.d.d.D.~.|.G.r.8.[ [ r.a.k.Y.AX*Xz.7.",
"U.k 8 8 8 v i.u.K l I a.l. .P o.|.$XA.*.rXaXC.qXuXwX8X9X2X8XsXsXkXsXiX3X2XrXfXsXrX7XfXjX9X@.o.s.D.S.~.S.|  . . . .! Q k.%X-Xx.^ ",
"XX) 8 l l L a.x. .I I a.S.s.U +.].-X^.=.C.C.B.wXcXdXiX:X9XdXhXcXhXkX8X1XdXcXjXgXrXqXrXHXsXL.s.A.F.a.T.~.p.| [ [ [ ' ' w..XMXW.6.",
"&Xp.j l l v p.P.8.I I y.S.a.U ..F.-X;XH.C.2.4.C.jXiXB.6XvXtX9XtXuXuXuXZ.2XcXHXjX8XrXwXjXlXA.s.f.s.s.G.).l.} [ [ [ ' { 0.(.AX Xw.",
"nXU.k l l l 8.x.p.L K o.S.a.` R o./.$X$X<XlX5X5XrX3X1.pXuXtXZ.2XtXiXhXcX>.9XjXfX7XaXrXkX<XA.f.f.s.o.D._.D.[ [ [ ' ' { { U.mX=Xz.",
"BX{.m j l l L z.z.' x } S.t.U ` ..o.H.^.'.8X5X4X8X2X:.;.Z.iX2X2XtXtX,XZ.;.:XgXaXqXjXkXhX=XF.@.s.y.y.a.~.I.r.' ' ' ' ' / x.mXBX X",
"BXOX6.j l z x q.S.a.[ p.D.} ~ U ` ....o.h.@XJ.1XrX8XB.Z.Z.vXpXvXvXcXZ.-.>.5XrXsX>XtXuXGXmXH.o.s.y.o.t.T.~.t.( { '  .' k.).mXnX%X",
"mXmXc.b k z x n r.a.a.t.| I U ~ U ` ` h. XMX$X<XlXwXeXgXHXiX9XtXiXuXHXzX6XwXaXrXL.@.A.|.mX/.y.y.o.o.r.S.~.z.r.{  ./ / S._.{.Y.x.",
"=XNXXXY.9.v x x L !  .r.t.o.~ I ` ` y.|.MXFXmXK.4XwXqXdXhXhXiXuXcXHXgXdXfXqXrXrX[.A.@./.-X^.s.s.o.o.t.S._.I.S.r.( / ^ { w.6.z.P.",
"bXNXmX).c.b v v c ! D.~.).).D.~ U U D.#X%XBXMX'.B.5XyXgXdXyXtXtXsXhXgXzXgXaXwXeX;XA.+./.-X/.o.o.o.t.D.S.I.S.i.[ / / ^ Q ^ S.#X%X",
"{.W.P.k.M x n x v D.).T.T.$X$Xa.~ ~ s.D.x.=XAX+X>XB.1XpXcXiX9X8XtXsXxXhXyX7X7XeX-X^.F.^.#XH.[ o.o.o.u.i.r.[ { '  ./ ^ ^ z._.-X-X",
"k.Y.].W.x.N b z  .^.$Xr.! ^.&X^.| I ~ ` }  XDXK.3X3X2.2.tXhX8XyXhXcXuX,X1X:XfXeX$X#X|.|./.a.o.} } } [ [ r.r.r.0./ ( ^ { I.`.~.-X",
"|.&X=XnX-XU.M z [ .X|.r.x a.%X#Xp.I ~ ` ~ '.@X; 7XqXB.B.,.<.4.B.2XZ.3.:X3XqXzXV.K R.~.D.s.o.o.} [ [ [ u.r.8.r.i.0.' ^ / u.0.z.%X",
"nX{.M.OXSX%Xi.b { .X#Xp.x | |.&XS.L I ~ I G.K ; aXyX4X:X:X>.&.h &.>.2X5XwXfXzX,.. 7 o.l.D.o.[ [ [ [ r.i.r.( { u.i./ / ^ ^ Q u..X",
"MXQ.k b.MXNXQ.m ! |.%Xl.v L T.&XT.~ I ~ ~ ` # h aXyXyX4X6X7X:X,.4.7X8X6XrXaXzX<.. - q ^.`.t.[ o.[ [ r.a.[ ' { r.i.7./ / / Q ) ^.",
"NXW.m ) OXSX X6.b T.-XT.! x D.%X^. .L I ~ q + g aXaXyX0XqXyX0X6XwXaXaXaXfXfXzX:.. X - O.).a.| ] ' ' r.i.r.(  .[ i.9./ / ^ / ^ S.",
"NX}.N k W.DX&Xu.x l.%X|.{ z a.#X^.! L  .c 3 , = B.xXaXyXsXdX0X7XwXfXzXaXxXfXzX&.o   X - F.S.( ] [ ' [ i.r. .( { w.w./ / / / Q i.",
"NX%Xw.k b.BXmXx.k / |.%XS.m D.#XT.! L 5 u r 7 $ h fXfXaXuXdXiX6XaXxXxXxXfXzXeXr : o O X u U.] ' ' { { r.u.{ ( ( 9.u./ / / / / k.",
"BXnXM.k i.mXMXx.b b D.#X$XI.~.).a.w @ + r e 3 * 3 :.dXaX0X0X0XtXeXaXfXfXfXzX&.* % # + O + ..p._  . .( r.u.[ / ( 0.u./ Q / Q i.`.",
"OXCX{.N w.-XnXx.k v L D._._.`.t.> % X t t 3 , = , g 2.yXyX7X6X>XeXyXaXfXdX,X= < X # % o & 3 c v ' / ! ' u.r.' / r.0./ ^ Q Q i.I.",
"Q.BXmXU.Y.bX%X9.k x z m 9.! c : < $ + p t e e % * y &.3.6XqX6X:X6XaXfXeX4Xg & =   X & & & , 2 + v { ( / 7.r.7.7.0./ Q Q Q Q / ) ",
"_ }.MX-X%X%XU.M b x k l $ - - > t # O u e e y *   < %.,.:.B.eX6XeXaX6X>X-.& e X     O < 1 * r , 1 q L Q ) { { ) / Q Q Q Q Q Q ) ",
"j ) Y.{.!.M.6.b b z 5 o & =   > G & X s 6 3 t < . * t -.1.&.3.>X6XV.,X,Xr < ,     X . 6 i , , 4 0 2 1 7 9 Q Q / 7./ Q m Q Q Q u.",
"j j k N M. XY.m 8 > O : 4 < X + S %   S p , < 1 . % o f <.-.&.:.<.V.>X&.  t # X . X   < S t < < < @ 1 < : & 7 L z.i.Q m m Q Q u.",
"j k k x.-X+X..@ = & & 1 1 t % . a %   Z a < = o     . r >.,.;.;.,.&.h * @ % @   . X o < a S < = 1 > 1 4 a + : 3 q ] ^ m Q m Q u.",
"9 j p.#XL.6 & % o % & 1 % & : X , &   S a & o % # % . o r 1.V.1.%.-   @ . X @ X . X o > p i < 1 6 C , p 1 # i t 3 3 I Q m m m w.",
"j j I.f.+ t 6 1 : % & + o & & X % & X F S , # % % %   . . ; 3.V - % *   & % X X . o o < G > < a C a C 3 + i S t 1 C G v m m m 0.",
"9 j M * e u p y y , = : 3 < & o   o X S S u 0 > 1 1 o X O   * O % * & % % X   X . o : t C : t a W S t 4 t C C 4 4 H C q b m b ) ",
"j j q = u t S p u u < i i C t O X X   S G a t t a C < X X o . X , 1 o & % X o X X : < 4 C t t 4 D *.C *.C C C < i H 4 D L m b Q ",
"k 8 A = e u u D p p y i t i Z 4 X X X S C a a t p C p o   X . = , + X * # o X X : 0 C 4 a t t C a H *.$.C C C t Z i 4 J K b b Q ",
"Q q F p   a p H S G p C i a p S 1 . @ C u 0 < 0 0 a Z S # X X = & X X 1 % @ X > a t C C 0 0 t C H *.a 4 C D C a 4 : S F A m b L ",
"0.A G J & 1 p G S G i i i 0 S G < . % C a t t u C $.*.$.# . , $.>   % > o @ % t a t C C C i C *.*.: # C C D D 0 < 4 J i C K m b ",
"i.A u D t O u G H J Z p t > a D 0 . e C t C H $.$.G t p 6   1 p % o & > X X 1 t < 0 a C C Y *.J > : < C C H C > 4 S D S F C ! b ",
"s.S G i y 1 e u H G Z p a : t S > X S A H $.S S 6 1 Z G t   , @ & @ = & X X < p t < t C $.$.C 0 0 > : C C H < 0 Z C C S S S 8 b ",
"X.Z H F 4 e , t D C t a < # t C @ > S $.s < 0 p t t J %.p @ > % & # % % o   t S > t p $.0 o < a 0 : : 0 G C # C p D t S C a 7 k ",
"Y s S H S < , < y i 1 t > # < t # e $.p 6 t t a t a s d S > & % # @ % & o   0 e : t $.0 . # > 0 0 > & t p < , u S 4 i Z p 3 S ~ ",
"S G S s S C > = 1 < @ 1 > # 6 0 o s S t t u s p y p p 4 1 # = % @ @ @ % @ X 6 > : $.C : o : 0 0 < > : i a # t u < < D 4 Z i s ..",
"i S F p y i t # @ > o = > @ t 6   u S y a 1 X % & & @ X     % # @ X X @ @ @ < # a H > < X > 0 0 > > : p = : p , > i S C p t y P "
};
